<svg xmlns="http://www.w3.org/2000/svg" width="29" height="29" viewBox="0 0 29 29" fill="none">
  <path d="M6.18063 24.4688H6.34375V24.6319C6.34375 25.55 6.70848 26.4306 7.35771 27.0798C8.00694 27.729 8.88748 28.0938 9.80562 28.0938H22.8194C23.7375 28.0938 24.6181 27.729 25.2673 27.0798C25.9165 26.4306 26.2812 25.55 26.2812 24.6319V7.99312C26.2813 7.07498 25.9165 6.19444 25.2673 5.54521C24.6181 4.89598 23.7375 4.53125 22.8194 4.53125H22.6562V4.36813C22.6563 3.91351 22.5667 3.46334 22.3927 3.04332C22.2188 2.62331 21.9638 2.24167 21.6423 1.92021C21.3208 1.59874 20.9392 1.34375 20.5192 1.16977C20.0992 0.995794 19.649 0.90625 19.1944 0.90625H6.18063C5.26248 0.90625 4.38194 1.27098 3.73271 1.92021C3.08348 2.56944 2.71875 3.44998 2.71875 4.36813V21.0069C2.71875 21.925 3.08348 22.8056 3.73271 23.4548C4.38194 24.104 5.26248 24.4688 6.18063 24.4688ZM22.8194 6.34375C23.2561 6.34613 23.6742 6.52067 23.983 6.82947C24.2918 7.13827 24.4664 7.55642 24.4688 7.99312V24.6319C24.4664 25.0686 24.2918 25.4867 23.983 25.7955C23.6742 26.1043 23.2561 26.2789 22.8194 26.2812H9.80562C9.36892 26.2789 8.95077 26.1043 8.64197 25.7955C8.33317 25.4867 8.15863 25.0686 8.15625 24.6319V7.99312C8.15863 7.55642 8.33317 7.13827 8.64197 6.82947C8.95077 6.52067 9.36892 6.34613 9.80562 6.34375H22.8194Z" fill="#232222"/>
</svg>