<svg xmlns="http://www.w3.org/2000/svg" width="49" height="49" viewBox="0 0 49 49" fill="none">
  <path d="M24.5 49C38.031 49 49 38.031 49 24.5C49 10.969 38.031 0 24.5 0C10.969 0 0 10.969 0 24.5C0 38.031 10.969 49 24.5 49Z" fill="#3887BF"/>
  <path fill-rule="evenodd" clip-rule="evenodd" d="M35.9223 37.6918H15.565C15.2716 37.6918 15.032 37.4539 15.032 37.1588V9.35298C15.032 9.05782 15.2716 8.81996 15.565 8.81996H29.5538C29.4618 8.97795 29.4097 9.16199 29.4097 9.35298V14.803C29.4097 15.3899 29.8855 15.8656 30.4723 15.8656H35.9223C36.1133 15.8656 36.2974 15.8135 36.4554 15.7215V37.1588C36.4554 37.4539 36.2175 37.6918 35.9223 37.6918ZM35.9223 15.336H30.4723C30.1789 15.336 29.9393 15.0982 29.9393 14.803V9.35298C29.9393 9.13769 30.0695 8.94323 30.2692 8.85989C30.4671 8.77829 30.6963 8.82343 30.8491 8.97622L36.2991 14.4263C36.4519 14.579 36.497 14.8082 36.4154 15.0079C36.3321 15.2058 36.1376 15.336 35.9223 15.336ZM33.4343 40.1798H13.077C12.7818 40.1798 12.5439 39.942 12.5439 39.6468V11.841C12.5439 11.5458 12.7818 11.308 13.077 11.308H14.5024V37.1588C14.5024 37.7456 14.9781 38.2213 15.565 38.2213H33.9673V39.6468C33.9673 39.942 33.7295 40.1798 33.4343 40.1798ZM33.0523 35.5684C33.1999 35.5684 33.3197 35.4486 33.3197 35.301C33.3197 35.1534 33.1999 35.0319 33.0523 35.0319H18.4367C18.2874 35.0319 18.1676 35.1534 18.1676 35.301C18.1676 35.4486 18.2874 35.5684 18.4367 35.5684H33.0523ZM33.0523 33.3425C33.1999 33.3425 33.3197 33.2227 33.3197 33.0734C33.3197 32.9258 33.1999 32.806 33.0523 32.806H18.4367C18.2874 32.806 18.1676 32.9258 18.1676 33.0734C18.1676 33.2227 18.2874 33.3425 18.4367 33.3425H33.0523ZM33.0523 31.1149C33.1999 31.1149 33.3197 30.9951 33.3197 30.8476C33.3197 30.6982 33.1999 30.5784 33.0523 30.5784H18.4367C18.2874 30.5784 18.1676 30.6982 18.1676 30.8476C18.1676 30.9951 18.2874 31.1149 18.4367 31.1149H33.0523ZM33.0523 28.8874C33.1999 28.8874 33.3197 28.7676 33.3197 28.62C33.3197 28.4724 33.1999 28.3526 33.0523 28.3526H18.4367C18.2874 28.3526 18.1676 28.4724 18.1676 28.62C18.1676 28.7676 18.2874 28.8874 18.4367 28.8874H33.0523ZM33.0523 26.6615C33.1999 26.6615 33.3197 26.5417 33.3197 26.3924C33.3197 26.2448 33.1999 26.125 33.0523 26.125H18.4367C18.2874 26.125 18.1676 26.2448 18.1676 26.3924C18.1676 26.5417 18.2874 26.6615 18.4367 26.6615H33.0523ZM33.0523 24.4339C33.1999 24.4339 33.3197 24.3141 33.3197 24.1665C33.3197 24.019 33.1999 23.8992 33.0523 23.8992H18.4367C18.2874 23.8992 18.1676 24.019 18.1676 24.1665C18.1676 24.3141 18.2874 24.4339 18.4367 24.4339H33.0523ZM33.0523 22.2081C33.1999 22.2081 33.3197 22.0883 33.3197 21.9389C33.3197 21.7914 33.1999 21.6716 33.0523 21.6716H18.4367C18.2874 21.6716 18.1676 21.7914 18.1676 21.9389C18.1676 22.0883 18.2874 22.2081 18.4367 22.2081H33.0523ZM30.8473 20.036C30.9949 20.036 31.1147 19.9162 31.1147 19.7686V17.7268C31.1147 17.5793 30.9949 17.4595 30.8473 17.4595H20.64C20.4924 17.4595 20.3726 17.5793 20.3726 17.7268V19.7686C20.3726 19.9162 20.4924 20.036 20.64 20.036H30.8473ZM20.9091 19.4995V17.9942H30.5799V19.4995H20.9091Z" fill="white"/>
</svg>