<svg xmlns="http://www.w3.org/2000/svg" width="44" height="44" viewBox="0 0 44 44" fill="none">
  <path d="M44 7.3335H0V36.6671H44V7.3335Z" fill="#F0F0F0"/>
  <path d="M24.75 7.33301H19.25V19.2496H0V24.7496H19.25V36.6662H24.75V24.7496H44V19.2496H24.75V7.33301Z" fill="#D80027"/>
  <path d="M33.8409 27.1011L44 32.7451V27.1011H33.8409Z" fill="#0052B4"/>
  <path d="M26.7826 27.1011L44 36.6663V33.9615L31.6514 27.1011H26.7826Z" fill="#0052B4"/>
  <path d="M39.4139 36.6664L26.7826 29.6484V36.6664H39.4139Z" fill="#0052B4"/>
  <path d="M26.7826 27.1011L44 36.6663V33.9615L31.6514 27.1011H26.7826Z" fill="#F0F0F0"/>
  <path d="M26.7826 27.1011L44 36.6663V33.9615L31.6514 27.1011H26.7826Z" fill="#D80027"/>
  <path d="M7.76368 27.1011L0 31.4143V27.1011H7.76368Z" fill="#0052B4"/>
  <path d="M17.2174 28.3174V36.6663H2.19064L17.2174 28.3174Z" fill="#0052B4"/>
  <path d="M12.3486 27.1011L0 33.9615V36.6663L17.2174 27.1011H12.3486Z" fill="#D80027"/>
  <path d="M10.1591 16.8984L0 11.2544V16.8984H10.1591Z" fill="#0052B4"/>
  <path d="M17.2174 16.8982L0 7.33301V10.0378L12.3486 16.8982H17.2174Z" fill="#0052B4"/>
  <path d="M4.58615 7.33301L17.2174 14.351V7.33301H4.58615Z" fill="#0052B4"/>
  <path d="M17.2174 16.8982L0 7.33301V10.0378L12.3486 16.8982H17.2174Z" fill="#F0F0F0"/>
  <path d="M17.2174 16.8982L0 7.33301V10.0378L12.3486 16.8982H17.2174Z" fill="#D80027"/>
  <path d="M36.2363 16.8982L44 12.585V16.8982H36.2363Z" fill="#0052B4"/>
  <path d="M26.7826 15.6819V7.33301H41.8094L26.7826 15.6819Z" fill="#0052B4"/>
  <path d="M31.6514 16.8982L44 10.0378V7.33301L26.7826 16.8982H31.6514Z" fill="#D80027"/>
</svg>