<svg width="564" height="170" viewBox="0 0 564 170" fill="none" xmlns="http://www.w3.org/2000/svg">
<path d="M12.1891 137.81C9.42313 138.401 6.75436 139.552 4.1445 140.849C4.09777 140.273 4.06043 139.692 3.99018 139.133C3.85837 138.059 3.73206 137.044 3.77736 135.947C3.84135 134.386 3.73125 132.873 3.62507 131.407C3.50306 129.755 3.39153 128.19 3.51721 126.615C3.97202 121.003 2.95027 115.519 1.9651 110.214C1.6649 108.602 1.36456 106.993 1.10701 105.384C0.109562 99.153 0.612422 92.662 1.10271 86.3812C1.40545 82.4844 1.71845 78.4535 1.68158 74.4713C1.59389 65.0065 2.18618 55.3983 2.75709 46.1098L3.05217 41.2854C3.14054 39.8069 3.24925 38.3273 3.35796 36.8478C3.63595 33.0258 3.92843 29.0745 3.8519 25.1528C3.76808 21.0892 3.53584 16.9831 3.31356 13.0122C3.31161 12.9695 3.30968 12.9267 3.30562 12.8816C10.5796 15.5364 18.1616 16.0165 25.5868 14.1796C29.7876 13.1421 33.6892 11.2293 37.4676 9.38093C41.2136 7.54635 44.7554 5.8118 48.5731 4.85023C52.3017 3.91028 55.5917 3.18206 58.5909 3.9674C61.5187 4.7395 63.9468 6.63556 66.5192 8.64125C67.4383 9.36064 68.3639 10.0827 69.3191 10.7616L69.5764 10.9431C70.9613 11.935 72.8561 13.2918 74.9394 13.4163C75.6084 13.4563 76.2516 13.3646 76.8526 13.1468C78.8676 12.4165 80.209 10.5931 81.3932 8.98699C82.0478 8.09901 82.6657 7.26047 83.3025 6.70815C86.3533 4.0643 89.3114 3.68888 93.3883 3.93255C94.1651 3.97897 94.9498 4.04383 95.7545 4.11213L97.3508 4.24345C100.66 4.51755 103.275 4.60872 106.279 2.81289C108.193 1.67017 109.209 1.25054 111.443 1.00244C113.943 0.727551 116.44 0.816223 118.768 0.955363L122.954 1.23021C126.907 1.46649 130.235 1.46559 133.643 0.695012C135.785 0.212459 138.009 0.046858 140.441 0.19217C145.743 0.509092 151.201 2.30337 156.477 4.03968C160.117 5.23591 163.884 6.47795 167.59 7.227C169.217 7.55771 170.83 7.68325 172.049 7.75611C172.68 7.79382 173.309 7.82244 173.94 7.85119C175.866 7.9371 177.811 8.10949 179.885 8.36137C181.437 8.54843 183.027 8.74001 184.599 8.83393C187.535 9.00943 189.837 8.80576 191.843 8.18936C193.025 7.82676 193.939 7.25963 194.747 6.75791C195.631 6.2114 196.394 5.74068 197.406 5.57447C198.803 5.35041 201.137 5.54377 203.119 5.77226L203.524 5.81891C203.945 5.8665 204.75 6.15258 205.527 6.4302C207.918 7.28023 210.914 8.01149 212.603 6.80825C213.307 6.30706 213.625 5.76714 213.801 5.3893C213.84 5.38487 213.88 5.38057 213.93 5.37681C213.937 5.37721 213.941 5.37748 213.948 5.37789C214.718 5.42391 215.507 6.09512 216.27 6.74458C216.753 7.15726 217.231 7.55626 217.712 7.87459C219.464 9.03206 222.1 10.6824 224.725 11.9639C227.352 13.2456 230.006 13.952 232.849 14.1218C234.941 14.2469 237.155 14.1009 240.03 13.6509L241.729 13.3776C245.171 12.8223 248.42 12.2959 251.815 12.4202C253.4 12.4768 254.99 12.628 256.577 12.7722C258.298 12.9311 260.016 13.09 261.727 13.1451C264.408 13.2312 267.049 12.6191 269.601 12.0286C273.85 11.0412 277.888 10.4048 281.057 12.2239C284.019 13.9297 286.911 16.0196 289.705 18.043C293.494 20.7813 297.409 23.6148 301.713 25.6679C306.745 28.0653 310.699 29.4307 314.53 30.0907L314.998 30.1725C316.682 30.4639 318.421 30.7677 320.206 30.8744C323.773 31.0876 326.538 30.4357 328.912 28.8222C330.281 27.8939 331.501 26.7882 332.68 25.7206C334.138 24.4002 335.512 23.1557 337.075 22.2929C339.641 20.8771 342.061 20.6783 345.139 20.8218L345.941 20.8653L349.479 21.1059C351.886 21.2498 354.49 21.2909 357.2 20.6223L358.497 20.2958C360.984 19.6655 363.127 19.1201 365.681 19.2233C367.962 19.3126 370.25 19.4403 372.542 19.5773L379.279 19.9957C381.891 20.1563 384.33 21.3055 386.912 22.5238C387.99 23.0327 389.07 23.5417 390.17 23.9846C393.868 25.4739 398.729 27.2236 403.552 27.5118C405.35 27.6193 407.052 27.5167 408.614 27.206C413.225 26.2829 415.281 23.7345 417.887 20.5118L418.424 19.8503C420.479 17.3175 422.936 15.5294 425.486 13.7714C428.707 11.5508 432.133 9.71731 435.666 8.32342C437.493 7.60207 440.138 7.46604 442.497 7.86299C444.05 8.1219 445.083 9.05458 446.389 10.2326C447.015 10.7953 447.663 11.3773 448.401 11.9264C450.308 13.3446 452.742 14.837 455.419 14.5234C455.496 14.5145 455.574 14.4989 455.652 14.4811C457.036 14.1239 458.362 13.5005 459.587 12.6354C460.652 12.0952 461.921 11.7715 463.276 11.7627C464.752 11.6107 466.191 11.6922 467.716 11.7811C471.649 12.0072 476.108 12.2647 479.359 8.45883C479.868 7.86294 480.297 7.27578 480.71 6.71228C481.549 5.56148 482.214 4.65391 483.358 4.0556C484.681 3.36249 486.237 3.11427 488.404 3.24375L489.162 3.30028C489.606 3.33804 490.051 3.38934 490.503 3.43658C492.415 3.64958 494.293 3.7686 495.793 3.51479C496.624 3.37364 497.414 3.15822 498.202 2.9382C499.128 2.67925 500.003 2.43301 500.914 2.35274C503.691 2.10791 506.444 2.25899 508.795 2.79462C509.7 2.9991 510.626 3.34847 511.604 3.7212C513.161 4.31263 514.772 4.92294 516.523 5.02759C517.585 5.09106 518.565 4.96337 519.524 4.63683C521.916 3.82797 524.229 3.6901 526.68 3.54253C527.854 3.47348 529.047 3.40117 530.284 3.25733C532.743 2.98002 535.169 2.46279 537.517 1.9589C539.726 1.48932 542.008 1.00167 544.241 0.735544C547.543 0.340255 550.848 0.488418 553.686 0.658016L557.129 0.875024C557.425 0.892735 557.793 0.961848 558.194 1.0285C558.826 1.13581 559.522 1.25149 560.195 1.29174C561.246 1.35453 562.059 1.21007 562.692 0.951577C563.919 3.33258 563.838 7.43348 563.784 10.3013C563.774 10.8933 563.763 11.4539 563.761 11.9656L563.761 12.4213C563.747 23.4311 563.732 34.818 562.187 45.5007C561.521 50.0874 560.335 54.7507 559.184 59.2613C558.696 61.1716 558.213 63.0755 557.764 64.9702C555.696 73.745 554.458 82.7017 553.866 93.1585C553.545 98.8792 553.212 104.595 552.864 110.314C552.376 118.323 552.394 125.333 552.929 133.04C552.988 133.865 553.061 134.675 553.131 135.476C553.327 137.652 553.509 139.708 553.358 141.853C553.298 142.705 553.302 143.662 553.308 144.645C553.316 145.914 553.326 147.217 553.176 148.321C552.852 148.093 552.504 147.771 552.256 147.543L551.897 147.214C551.517 146.873 551.137 146.516 550.751 146.158C548.96 144.484 547.108 142.755 544.819 141.81C543.342 141.203 541.701 140.863 539.652 140.74C538.381 140.664 537.08 140.679 535.784 140.698C533.619 140.723 531.358 140.703 529.713 140.337C529.144 140.209 528.606 140.042 528.082 139.88C526.144 139.284 523.889 138.864 521.81 139.73C518.437 141.131 516.947 144.041 515.506 146.855L515.146 147.552C514.8 148.221 513.921 149.771 513.214 149.729C512.68 149.697 511.803 149.135 510.957 148.588C509.744 147.806 508.235 146.832 506.412 146.487C504.492 146.121 502.707 146.427 501.038 146.722C499.244 147.042 497.554 147.264 496.081 146.736C493.697 145.875 491.698 144.101 489.585 142.226C486.587 139.567 483.485 136.813 478.984 136.466C478.975 136.465 478.764 136.45 478.755 136.45C478.129 136.412 477.502 136.42 476.877 136.425C475.829 136.436 474.748 136.423 473.934 136.211C472.543 135.852 471.365 134.899 470.121 133.893C469.107 133.072 468.058 132.225 466.793 131.591C465.116 130.752 463.254 130.567 460.673 131.052C458.28 131.509 456.138 131.461 454.176 131.344L453.148 131.276C452.639 131.239 452.122 131.174 451.599 131.109C450.932 131.027 450.259 130.946 449.59 130.906C448.137 130.819 446.963 130.949 445.891 131.311C444.405 131.822 442.936 132.729 441.514 133.607C440.994 133.928 440.489 134.243 440.006 134.515C439.477 134.818 438.984 135.114 438.511 135.398C436.352 136.697 434.927 137.554 432.408 137.545C429.403 137.538 425.998 137.364 423.341 137.006C422.051 136.832 420.792 136.222 419.458 135.577C417.858 134.801 416.209 134.002 414.334 133.89C413.169 133.821 412.028 134.033 410.942 134.525C408.386 135.674 406.518 134.359 404.096 132.515C403.093 131.755 402.059 130.966 400.861 130.272C399.104 129.256 397.703 128.764 396.313 128.681C394.717 128.585 393.203 129.069 391.807 130.115C390.491 131.103 389.651 132.496 388.838 133.843C388.167 134.957 387.535 136.008 386.774 136.551C385.27 137.628 382.45 136.533 380.042 135.468C379.002 135.006 378.02 134.573 377.094 134.309C373.891 133.404 370.33 134.253 367.144 136.7C366.247 137.389 365.477 138.138 364.73 138.861C363.14 140.405 361.882 141.627 360.067 141.725C358.303 141.795 357.223 140.457 355.591 138.09C354.075 135.892 352.357 133.398 349.257 133.123L349.253 133.123C346.774 132.975 345.123 134.672 343.796 136.032C343.419 136.42 343.054 136.798 342.686 137.106C341.242 138.315 339.998 138.433 337.942 138.631L337.659 138.659C335.241 138.899 332.962 138.805 330.548 138.71L328.839 138.646C324.205 138.495 321.525 140.553 318.5 143.259C315.443 145.992 312.561 148.006 308.426 148.964C307.503 149.176 306.591 149.317 305.704 149.457C302.429 149.969 299.04 150.502 296.217 154.157C294.476 156.412 293.63 158.882 292.807 161.273C292.476 162.236 292.141 163.215 291.74 164.195C290.38 167.539 289.705 168.655 289.421 169.026C289.259 168.756 289.052 168.346 288.877 167.997C288.502 167.252 288.226 166.6 287.962 165.987C287.128 164.04 286.341 162.202 284.122 160.511C282.913 159.588 280.447 158.018 277.482 157.841C276.397 157.776 275.358 157.909 274.396 158.24C272.538 158.876 271.049 160.076 269.607 161.238C268.234 162.343 266.937 163.386 265.493 163.8C263.332 164.414 262.397 164.223 260.163 162.406C255.674 158.764 252.503 156.666 246.622 157.401C245.103 157.587 243.594 157.952 242.136 158.305C239.61 158.915 237.255 159.493 234.981 159.162C233.824 158.994 232.698 158.601 231.507 158.184C230.578 157.859 229.615 157.523 228.591 157.28C227.23 156.956 225.903 156.805 224.62 156.661C222.924 156.47 221.324 156.291 219.76 155.726C217.874 155.046 215.954 154.184 214.096 153.347C213.35 153.011 212.604 152.675 211.858 152.349C210.411 151.717 209.103 151.469 207.842 151.227C207.248 151.113 206.642 150.998 206.002 150.837C205.516 150.713 205.052 150.562 204.595 150.418C203.35 150.018 202.032 149.612 200.484 149.647C196.794 149.743 194.223 152.391 192.104 154.866C191.666 155.378 191.279 155.995 190.906 156.595C190.46 157.304 189.905 158.189 189.483 158.46C188.48 159.107 185.763 157.906 185.068 157.548C183.865 156.933 182.683 156.283 181.507 155.638C176.954 153.137 172.247 150.548 166.823 150.224C165.447 150.141 164.053 150.206 162.684 150.423C160.389 150.784 158.731 151.832 157.129 152.85C156.528 153.231 155.912 153.623 155.239 153.987C154.85 154.195 154.3 154.47 153.97 154.45C153.777 154.438 153.528 154.3 153.23 154.042C152.661 153.548 152.107 151.649 151.743 150.393C151.406 149.237 151.089 148.145 150.647 147.317C148.267 142.847 144.586 140.084 140.284 139.539C137.932 139.237 135.484 139.252 133.135 139.271C129.811 139.295 126.338 139.204 123.847 138.541C121.623 137.946 119.432 136.41 117.776 135.139C117.086 134.611 116.484 134.103 115.926 133.634C113.669 131.735 111.758 130.121 107.879 130.19C105.364 130.233 102.984 130.778 100.684 131.305C99.4001 131.598 98.1095 131.894 96.7996 132.098C93.6113 132.592 91.1666 134.707 88.8069 136.757C86.4758 138.779 84.2709 140.688 81.6581 140.752C80.5007 140.779 79.8078 140.235 78.3702 138.993C77.7705 138.472 77.255 138.012 76.7592 137.563C74.5848 135.606 72.5324 133.757 69.3848 132.592C66.9359 131.685 64.7743 131.513 62.4873 131.327C61.9872 131.288 61.4805 131.247 60.9564 131.195C60.5262 131.156 59.8645 130.919 59.2226 130.69C57.5618 130.092 55.4272 129.581 53.954 130.368C52.8157 130.98 52.3069 132.18 51.9001 133.143C51.7396 133.529 51.4669 134.17 51.3007 134.313C50.7726 134.629 49.083 134.212 47.7952 133.783C47.3467 133.634 46.9268 133.497 46.5566 133.396L45.581 133.134C41.6719 132.081 38.6672 131.652 34.817 133.42C33.8139 133.881 32.7784 134.47 31.7754 135.043C29.7135 136.217 27.5817 137.432 25.7093 137.585C21.4511 137.925 17.0708 136.764 12.1891 137.81Z" fill="#ADDFF8"/>
</svg>
