<svg width="723" height="324" viewBox="0 0 723 324" fill="none" xmlns="http://www.w3.org/2000/svg">
<path d="M165.189 193.81C162.423 194.401 159.754 195.552 157.145 196.849C157.098 196.273 157.06 195.692 156.99 195.133C156.858 194.059 156.732 193.044 156.777 191.947C156.841 190.386 156.731 188.873 156.625 187.407C156.503 185.755 156.392 184.19 156.517 182.615C156.972 177.003 155.95 171.519 154.965 166.214C154.665 164.602 154.365 162.993 154.107 161.384C153.11 155.153 153.612 148.662 154.103 142.381C154.405 138.484 154.718 134.453 154.682 130.471C154.594 121.006 155.186 111.398 155.757 102.11L156.052 97.2854C156.141 95.8069 156.249 94.3273 156.358 92.8478C156.636 89.0258 156.928 85.0745 156.852 81.1528C156.768 77.0892 156.536 72.9831 156.314 69.0122C156.312 68.9695 156.31 68.9267 156.306 68.8816C163.58 71.5364 171.162 72.0165 178.587 70.1796C182.788 69.1421 186.689 67.2293 190.468 65.3809C194.214 63.5463 197.755 61.8118 201.573 60.8502C205.302 59.9103 208.592 59.1821 211.591 59.9674C214.519 60.7395 216.947 62.6356 219.519 64.6413C220.438 65.3606 221.364 66.0827 222.319 66.7616L222.576 66.9431C223.961 67.935 225.856 69.2918 227.939 69.4163C228.608 69.4563 229.252 69.3646 229.853 69.1468C231.868 68.4165 233.209 66.5931 234.393 64.987C235.048 64.099 235.666 63.2605 236.302 62.7081C239.353 60.0643 242.311 59.6889 246.388 59.9325C247.165 59.979 247.95 60.0438 248.755 60.1121L250.351 60.2435C253.66 60.5175 256.275 60.6087 259.279 58.8129C261.193 57.6702 262.209 57.2505 264.443 57.0024C266.943 56.7276 269.44 56.8162 271.768 56.9554L275.954 57.2302C279.907 57.4665 283.235 57.4656 286.643 56.695C288.785 56.2125 291.009 56.0469 293.441 56.1922C298.743 56.5091 304.201 58.3034 309.477 60.0397C313.117 61.2359 316.884 62.4779 320.59 63.227C322.217 63.5577 323.83 63.6833 325.049 63.7561C325.68 63.7938 326.309 63.8224 326.94 63.8512C328.866 63.9371 330.811 64.1095 332.885 64.3614C334.437 64.5484 336.027 64.74 337.599 64.8339C340.535 65.0094 342.837 64.8058 344.843 64.1894C346.025 63.8268 346.939 63.2596 347.747 62.7579C348.631 62.2114 349.394 61.7407 350.406 61.5745C351.803 61.3504 354.137 61.5438 356.119 61.7723L356.524 61.8189C356.945 61.8665 357.75 62.1526 358.527 62.4302C360.918 63.2802 363.914 64.0115 365.603 62.8082C366.307 62.3071 366.625 61.7671 366.801 61.3893C366.84 61.3849 366.88 61.3806 366.93 61.3768C366.937 61.3772 366.941 61.3775 366.948 61.3779C367.718 61.4239 368.507 62.0951 369.27 62.7446C369.753 63.1573 370.231 63.5563 370.712 63.8746C372.464 65.0321 375.1 66.6824 377.725 67.9639C380.352 69.2456 383.006 69.952 385.849 70.1218C387.941 70.2469 390.155 70.1009 393.03 69.6509L394.729 69.3776C398.171 68.8223 401.42 68.2959 404.815 68.4202C406.4 68.4768 407.99 68.628 409.577 68.7722C411.298 68.9311 413.016 69.09 414.727 69.1451C417.408 69.2312 420.049 68.6191 422.601 68.0286C426.85 67.0412 430.888 66.4048 434.057 68.2239C437.019 69.9297 439.911 72.0196 442.705 74.043C446.494 76.7813 450.409 79.6148 454.713 81.6679C459.745 84.0653 463.699 85.4307 467.53 86.0907L467.998 86.1725C469.682 86.4639 471.421 86.7677 473.206 86.8744C476.773 87.0876 479.538 86.4357 481.912 84.8222C483.281 83.8939 484.501 82.7882 485.68 81.7206C487.138 80.4002 488.512 79.1557 490.075 78.2929C492.641 76.8771 495.061 76.6783 498.139 76.8218L498.941 76.8653L502.479 77.1059C504.886 77.2498 507.49 77.2909 510.2 76.6223L511.497 76.2958C513.984 75.6655 516.127 75.1201 518.681 75.2233C520.962 75.3126 523.25 75.4403 525.542 75.5773L532.279 75.9957C534.891 76.1563 537.33 77.3055 539.912 78.5238C540.99 79.0327 542.07 79.5417 543.17 79.9846C546.868 81.4739 551.729 83.2236 556.552 83.5118C558.35 83.6193 560.052 83.5167 561.614 83.206C566.225 82.2829 568.281 79.7345 570.887 76.5118L571.424 75.8503C573.479 73.3175 575.936 71.5294 578.486 69.7714C581.707 67.5508 585.133 65.7173 588.666 64.3234C590.493 63.6021 593.138 63.466 595.497 63.863C597.05 64.1219 598.083 65.0546 599.389 66.2326C600.015 66.7953 600.663 67.3773 601.401 67.9264C603.308 69.3446 605.742 70.837 608.419 70.5234C608.496 70.5145 608.574 70.4989 608.652 70.4811C610.036 70.1239 611.362 69.5005 612.587 68.6354C613.652 68.0952 614.921 67.7715 616.276 67.7627C617.752 67.6107 619.191 67.6922 620.716 67.7811C624.649 68.0072 629.108 68.2647 632.359 64.4588C632.868 63.8629 633.297 63.2758 633.71 62.7123C634.549 61.5615 635.214 60.6539 636.358 60.0556C637.681 59.3625 639.237 59.1143 641.404 59.2437L642.162 59.3003C642.606 59.338 643.051 59.3893 643.503 59.4366C645.415 59.6496 647.293 59.7686 648.793 59.5148C649.624 59.3736 650.414 59.1582 651.202 58.9382C652.128 58.6793 653.003 58.433 653.914 58.3527C656.691 58.1079 659.444 58.259 661.795 58.7946C662.7 58.9991 663.626 59.3485 664.604 59.7212C666.161 60.3126 667.772 60.9229 669.523 61.0276C670.585 61.0911 671.565 60.9634 672.524 60.6368C674.916 59.828 677.229 59.6901 679.68 59.5425C680.854 59.4735 682.047 59.4012 683.284 59.2573C685.743 58.98 688.169 58.4628 690.517 57.9589C692.726 57.4893 695.008 57.0017 697.241 56.7355C700.543 56.3403 703.848 56.4884 706.686 56.658L710.129 56.875C710.425 56.8927 710.793 56.9618 711.194 57.0285C711.826 57.1358 712.522 57.2515 713.195 57.2917C714.246 57.3545 715.059 57.2101 715.692 56.9516C716.919 59.3326 716.838 63.4335 716.784 66.3013C716.774 66.8933 716.763 67.4539 716.761 67.9656L716.761 68.4213C716.747 79.4311 716.732 90.818 715.187 101.501C714.521 106.087 713.335 110.751 712.184 115.261C711.696 117.172 711.213 119.076 710.764 120.97C708.696 129.745 707.458 138.702 706.866 149.159C706.545 154.879 706.212 160.595 705.864 166.314C705.376 174.323 705.394 181.333 705.929 189.04C705.988 189.865 706.061 190.675 706.131 191.476C706.327 193.652 706.509 195.708 706.358 197.853C706.298 198.705 706.302 199.662 706.308 200.645C706.316 201.914 706.326 203.217 706.176 204.321C705.852 204.093 705.504 203.771 705.256 203.543L704.897 203.214C704.517 202.873 704.137 202.516 703.751 202.158C701.96 200.484 700.108 198.755 697.819 197.81C696.342 197.203 694.701 196.863 692.652 196.74C691.381 196.664 690.08 196.679 688.784 196.698C686.619 196.723 684.358 196.703 682.713 196.337C682.144 196.209 681.606 196.042 681.082 195.88C679.144 195.284 676.889 194.864 674.81 195.73C671.437 197.131 669.947 200.041 668.506 202.855L668.146 203.552C667.8 204.221 666.921 205.771 666.214 205.729C665.68 205.697 664.803 205.135 663.957 204.588C662.744 203.806 661.235 202.832 659.412 202.487C657.492 202.121 655.707 202.427 654.038 202.722C652.244 203.042 650.554 203.264 649.081 202.736C646.697 201.875 644.698 200.101 642.585 198.226C639.587 195.567 636.485 192.813 631.984 192.466C631.975 192.465 631.764 192.45 631.755 192.45C631.129 192.412 630.502 192.42 629.877 192.425C628.829 192.436 627.748 192.423 626.934 192.211C625.543 191.852 624.365 190.899 623.121 189.893C622.107 189.072 621.058 188.225 619.793 187.591C618.116 186.752 616.254 186.567 613.673 187.052C611.28 187.509 609.138 187.461 607.176 187.344L606.148 187.276C605.639 187.239 605.122 187.174 604.599 187.109C603.932 187.027 603.259 186.946 602.59 186.906C601.137 186.819 599.963 186.949 598.891 187.311C597.405 187.822 595.936 188.729 594.514 189.607C593.994 189.928 593.489 190.243 593.006 190.515C592.477 190.818 591.984 191.114 591.511 191.398C589.352 192.697 587.927 193.554 585.408 193.545C582.403 193.538 578.998 193.364 576.341 193.006C575.051 192.832 573.792 192.222 572.458 191.577C570.858 190.801 569.209 190.002 567.334 189.89C566.169 189.821 565.028 190.033 563.942 190.525C561.386 191.674 559.518 190.359 557.096 188.515C556.093 187.755 555.059 186.966 553.861 186.272C552.104 185.256 550.703 184.764 549.313 184.681C547.717 184.585 546.203 185.069 544.807 186.115C543.491 187.103 542.651 188.496 541.838 189.843C541.167 190.957 540.535 192.008 539.774 192.551C538.27 193.628 535.45 192.533 533.042 191.468C532.002 191.006 531.02 190.573 530.094 190.309C526.891 189.404 523.33 190.253 520.144 192.7C519.247 193.389 518.477 194.138 517.73 194.861C516.14 196.405 514.882 197.627 513.067 197.725C511.303 197.795 510.223 196.457 508.591 194.09C507.075 191.892 505.357 189.398 502.257 189.123L502.253 189.123C499.774 188.975 498.123 190.672 496.796 192.032C496.419 192.42 496.054 192.798 495.686 193.106C494.242 194.315 492.998 194.433 490.942 194.631L490.659 194.659C488.241 194.899 485.962 194.805 483.548 194.71L481.839 194.646C477.205 194.495 474.525 196.553 471.5 199.259C468.443 201.992 465.561 204.006 461.426 204.964C460.503 205.176 459.591 205.317 458.704 205.457C455.429 205.969 452.04 206.502 449.217 210.157C447.476 212.412 446.63 214.882 445.807 217.273C445.476 218.236 445.141 219.215 444.74 220.195C443.38 223.539 442.705 224.655 442.421 225.026C442.259 224.756 442.052 224.346 441.877 223.997C441.502 223.252 441.226 222.6 440.962 221.987C440.128 220.04 439.341 218.202 437.122 216.511C435.913 215.588 433.447 214.018 430.482 213.841C429.397 213.776 428.358 213.909 427.396 214.24C425.538 214.876 424.049 216.076 422.607 217.238C421.234 218.343 419.937 219.386 418.493 219.8C416.332 220.414 415.397 220.223 413.163 218.406C408.674 214.764 405.503 212.666 399.622 213.401C398.103 213.587 396.594 213.952 395.136 214.305C392.61 214.915 390.255 215.493 387.981 215.162C386.824 214.994 385.698 214.601 384.507 214.184C383.578 213.859 382.615 213.523 381.591 213.28C380.23 212.956 378.903 212.805 377.62 212.661C375.924 212.47 374.324 212.291 372.76 211.726C370.874 211.046 368.954 210.184 367.096 209.347C366.35 209.011 365.604 208.675 364.858 208.349C363.411 207.717 362.103 207.469 360.842 207.227C360.248 207.113 359.642 206.998 359.002 206.837C358.516 206.713 358.052 206.562 357.595 206.418C356.35 206.018 355.032 205.612 353.484 205.647C349.794 205.743 347.223 208.391 345.104 210.866C344.666 211.378 344.279 211.995 343.906 212.595C343.46 213.304 342.905 214.189 342.483 214.46C341.48 215.107 338.763 213.906 338.068 213.548C336.865 212.933 335.683 212.283 334.507 211.638C329.954 209.137 325.247 206.548 319.823 206.224C318.447 206.141 317.053 206.206 315.684 206.423C313.389 206.784 311.731 207.832 310.129 208.85C309.528 209.231 308.912 209.623 308.239 209.987C307.85 210.195 307.3 210.47 306.97 210.45C306.777 210.438 306.528 210.3 306.23 210.042C305.661 209.548 305.107 207.649 304.743 206.393C304.406 205.237 304.089 204.145 303.647 203.317C301.267 198.847 297.586 196.084 293.284 195.539C290.932 195.237 288.484 195.252 286.135 195.271C282.811 195.295 279.338 195.204 276.847 194.541C274.623 193.946 272.432 192.41 270.776 191.139C270.086 190.611 269.484 190.103 268.926 189.634C266.669 187.735 264.758 186.121 260.879 186.19C258.364 186.233 255.984 186.778 253.684 187.305C252.4 187.598 251.11 187.894 249.8 188.098C246.611 188.592 244.167 190.707 241.807 192.757C239.476 194.779 237.271 196.688 234.658 196.752C233.501 196.779 232.808 196.235 231.37 194.993C230.771 194.472 230.255 194.012 229.759 193.563C227.585 191.606 225.532 189.757 222.385 188.592C219.936 187.685 217.774 187.513 215.487 187.327C214.987 187.288 214.481 187.247 213.956 187.195C213.526 187.156 212.864 186.919 212.223 186.69C210.562 186.092 208.427 185.581 206.954 186.368C205.816 186.98 205.307 188.18 204.9 189.143C204.74 189.529 204.467 190.17 204.301 190.313C203.773 190.629 202.083 190.212 200.795 189.783C200.347 189.634 199.927 189.497 199.557 189.396L198.581 189.134C194.672 188.081 191.667 187.652 187.817 189.42C186.814 189.881 185.778 190.47 184.775 191.043C182.714 192.217 180.582 193.432 178.709 193.585C174.451 193.925 170.071 192.764 165.189 193.81Z" fill="#ADDFF8"/>
<path d="M112.917 46.5342C112.923 47.1833 112.934 47.8394 112.942 48.4931C112.858 48.4567 112.775 48.4203 112.663 48.371C112.262 48.1898 111.766 47.9649 111.132 47.8193C109.15 47.3708 108.021 47.9678 107.129 48.4263C106.808 48.5912 106.522 48.7357 106.2 48.8377L106.187 48.8369C105.487 48.7951 104.823 48.6274 104.163 48.3276C104.071 48.2839 103.974 48.2512 103.876 48.2274C101.965 47.7473 100.007 47.5899 98.0544 47.7695C97.957 47.7794 97.8613 47.7961 97.7653 47.8195C96.2193 48.2412 95.4793 49.2004 94.9885 49.8355C94.6955 50.2153 94.5299 50.4209 94.2909 50.5368C94.0424 50.6612 93.8294 50.7203 93.6723 50.7109C93.0728 50.675 92.2969 49.3334 91.7844 48.4453C91.5127 47.9778 91.2513 47.5267 90.9856 47.1472C90.6121 46.6108 90.2241 46.0152 89.8176 45.3916C88.4116 43.2446 86.8223 40.8105 84.9889 39.2934C83.9843 38.459 82.8168 37.7135 80.6219 37.8719C76.1837 38.2082 71.4034 40.9867 67.8358 45.3034C66.8086 46.544 65.8808 47.8579 64.9848 49.1265C64.1061 50.3715 63.2742 51.5497 62.3534 52.6686L61.5403 53.6818C60.2883 55.2547 58.3999 57.6358 57.0592 58.393C56.7724 58.5554 55.779 58.2873 54.8277 57.8825C54.4146 57.7074 54.0038 57.5302 53.5956 57.3868L51.819 56.7666C49.1095 55.81 46.5521 54.9096 43.7534 54.1632C43.0681 53.9808 42.3022 53.6769 41.4941 53.3637C39.8733 52.7371 38.037 52.0235 36.2612 51.9173C34.8132 51.8308 33.5634 52.1601 32.5462 52.894C31.2658 53.9242 30.3103 55.1331 29.6209 56.5286C29.8487 50.6429 29.866 44.812 29.3434 38.7782C29.2187 37.3587 29.0328 35.9469 28.8444 34.5371C28.4965 31.9146 28.1692 29.437 28.2463 26.9028C28.3139 24.6777 28.4788 22.4473 28.6457 20.2192C28.7418 18.914 28.84 17.6089 28.9178 16.3071C28.9447 15.8575 28.9439 15.3816 28.9434 14.8989C28.9379 13.3699 28.9796 12.333 29.5756 11.8613C30.3083 11.2878 31.3911 11.1909 32.6456 11.084C34.4438 10.9289 36.6813 10.7349 38.3936 8.85057C39.0276 8.15666 39.4491 7.47475 39.8206 6.87514C40.5288 5.73222 40.8529 5.2106 42.2071 4.98175C43.2518 4.804 44.1765 5.05232 45.3249 5.40155C45.7299 5.52453 46.1458 5.65264 46.5939 5.76922C50.1731 6.688 54.5556 6.83096 60.7775 6.16797C64.0933 5.83862 67.0441 8.22385 69.9428 10.5386C70.6137 11.0748 71.2675 11.5965 71.9103 12.0749C75.9851 15.1042 79.4371 17.7372 85.5447 17.8934C87.4379 18.1839 89.2403 17.8809 90.9129 16.9998C91.0314 16.9396 91.1395 16.8652 91.2394 16.7769C92.2733 15.8757 93.4082 15.095 94.6178 14.4579C96.4305 13.9086 99.001 14.8164 101.351 15.7627C101.969 16.0107 102.57 16.2531 103.143 16.458C105.076 17.1459 106.903 17.5111 109.074 17.6408L110.812 17.7043C111.023 17.7169 111.157 17.7384 111.244 17.7615C111.521 19.8298 111.675 21.9289 111.702 24.0047C111.936 28.2591 112.239 32.5019 112.606 36.6879C112.848 39.9259 112.884 43.2862 112.917 46.5342Z" fill="white"/>
<path d="M30.2967 262.126C30.4013 261.432 30.5139 260.716 30.4993 259.943C30.4787 258.741 30.3199 257.591 30.1657 256.477C30.0006 255.282 29.8448 254.155 29.8626 253.029C29.9525 247.981 30.2861 242.852 30.6572 237.812C31.3672 237.919 32.1048 238.094 32.8992 238.334C34.6274 238.86 36.5898 239.35 38.3549 239.031C39.7649 238.774 40.9106 238.075 41.9208 237.457C43.0316 236.778 43.988 236.193 45.1298 236.239L45.1321 236.239C46.2546 236.306 47.3847 236.773 48.5807 237.269C49.3195 237.574 50.0496 237.873 50.7664 238.093L51.4279 238.297C53.6355 238.981 56.2314 239.765 58.6323 239.666C60.3693 239.592 61.3033 238.93 62.1293 238.342C62.4539 238.112 62.8002 237.859 63.2689 237.631C65.9584 236.321 70.8294 235.077 74.1319 235.687C75.3647 235.907 76.6303 236.483 77.9683 237.091C79.7757 237.912 81.6466 238.763 83.7457 238.888C84.8525 238.954 85.9408 238.802 86.9739 238.441C91.3488 236.903 95.5344 233.972 97.894 230.793C100.688 227.025 102.642 223.166 104.34 219.555C104.485 219.242 104.64 218.868 104.812 218.451C105.099 217.752 105.552 216.65 106.041 215.894C106.243 216.207 106.432 216.562 106.635 216.937C107.332 218.241 108.199 219.862 110.173 220.839C111.282 221.388 112.454 221.689 113.588 221.984C114.211 222.147 114.833 222.303 115.422 222.509C116.183 222.774 116.981 223.107 117.797 223.445C119.657 224.219 121.578 225.018 123.504 225.288C123.549 225.293 123.598 225.298 123.643 225.303C124.198 230.791 124.616 236.35 125.011 241.734L125.38 246.717C125.479 248.034 125.61 249.353 125.74 250.671C126.088 254.203 126.446 257.859 126.183 261.358C125.937 264.641 125.723 267.926 125.567 271.212C125.545 271.698 125.552 272.105 125.554 272.453C125.555 272.515 125.558 272.576 125.559 272.632C125.433 272.659 125.269 272.689 125.056 272.721C123.174 273.022 121.201 272.183 119.148 271.262C117.002 270.296 114.728 269.289 112.166 269.513C108.848 269.804 106.956 272.259 105.432 274.233C104.865 274.972 104.328 275.667 103.799 276.147C102.824 277.036 101.869 277.185 100.545 277.394C99.5901 277.543 98.51 277.71 97.3101 278.184C95.8193 278.775 94.7274 279.704 93.7612 280.528C92.7451 281.395 91.8667 282.144 90.658 282.426C88.1677 283.004 85.0113 281.797 82.5525 280.565C82.0974 280.338 81.619 280.088 81.1229 279.831C78.3283 278.376 74.852 276.565 71.4643 276.363C68.5481 276.188 66.1324 277.214 64.2888 279.411C64.0099 279.742 63.7679 280.06 63.543 280.354C62.6874 281.477 62.5355 281.681 61.3546 281.611C61.1661 281.599 60.96 281.578 60.7412 281.545C59.8899 281.427 59.1425 281.227 58.353 281.018C57.2396 280.723 56.0862 280.418 54.6248 280.331C53.8949 280.292 53.2628 280.274 52.6217 280.258C50.7055 280.202 48.7969 280.095 47.4972 279.788C46.4995 279.556 45.5018 279.096 44.4468 278.616C42.835 277.877 41.1661 277.113 39.2175 276.997C38.1037 276.935 37.1396 277.158 36.2899 277.352C35.3328 277.57 34.5453 277.741 33.8671 277.517C31.803 276.843 31.4797 274.148 31.5929 272.819C31.7708 270.747 31.29 268.992 30.8215 267.294C30.4993 266.125 30.1979 265.023 30.1355 263.881C30.108 263.361 30.2002 262.76 30.2967 262.126Z" fill="white"/>
<path d="M17.6044 240.922C17.2273 240.9 17.1134 240.77 17.0544 240.701C16.3098 239.853 16.528 237.069 16.6444 235.574C16.686 235.067 16.7202 234.607 16.7344 234.219C16.8051 232.282 16.4786 230.507 16.1644 228.791C16.0115 227.956 15.8544 227.116 15.7485 226.249C15.3986 223.396 15.2506 220.444 15.1082 217.587C14.9794 214.955 14.8444 212.237 14.5497 209.553C14.0961 205.382 13.7692 201.878 14.056 197.947L14.2292 195.614C14.521 191.75 14.8252 187.755 14.7763 183.785C14.7058 177.877 14.609 171.016 14.3458 164.373C14.2507 161.894 13.9885 159.42 13.7373 157.026C13.3521 153.368 12.9906 149.917 13.1432 146.384C13.4846 138.41 14.7391 130.35 15.9528 122.559C17.5929 112.006 19.2904 101.094 18.8043 90.077C18.7334 88.4745 18.5679 86.9067 18.4024 85.3412C18.1797 83.2245 17.9679 81.2274 17.9904 79.1546C18.0086 77.4182 17.9858 75.6884 17.9627 73.963C17.9311 71.5143 17.8976 68.9846 17.9917 66.5053C18.0708 64.4269 17.7558 62.3091 17.4525 60.2595C17.1228 58.0489 16.8098 55.9335 16.9705 53.961C17.1287 54.141 17.2848 54.3187 17.3965 54.4489C17.6031 54.6857 17.7951 54.9037 17.9714 55.0826C19.7899 56.9243 22.5521 59.5249 25.3729 61.4467C26.2736 62.0595 27.3692 62.8029 28.7072 62.8829C29.4525 62.9274 30.1634 62.7566 30.8102 62.3755C31.1839 62.1554 31.4573 61.8014 31.5768 61.3865C31.9022 60.2387 32.2607 59.104 32.6503 57.9757C33.0643 57.1183 33.725 56.2778 34.6033 55.5693C34.7704 55.4491 35.1914 55.2273 36.067 55.2797C37.3152 55.3543 38.8214 55.9381 40.2791 56.5034C41.1972 56.8613 42.0627 57.1959 42.8899 57.4159C45.5621 58.1301 48.0598 59.0112 50.7054 59.9438L52.4907 60.569C52.824 60.6854 53.162 60.8336 53.5006 60.9751C55.0556 61.6449 57.1415 62.2185 58.7291 61.3257C60.6434 60.2459 62.6096 57.7684 64.1908 55.7775L64.9675 54.8071C65.966 53.5939 66.8717 52.3124 67.7479 51.0718C68.6487 49.7967 69.5001 48.595 70.4473 47.4484C72.7595 44.6482 76.7164 41.5467 80.8876 41.2303C81.6095 41.1769 81.9302 41.1265 82.8359 41.881C84.2784 43.0761 85.7215 45.2815 86.9952 47.2297C87.4205 47.8792 87.827 48.5029 88.2193 49.0628C88.435 49.3743 88.6473 49.7439 88.8677 50.1274C89.7949 51.7273 91.0651 53.9223 93.4761 54.0686C94.2281 54.1135 95.0092 53.938 95.7914 53.5537C96.7431 53.0853 97.278 52.3922 97.6663 51.8879C98.0255 51.42 98.1926 51.2257 98.5333 51.1047C100.005 50.9883 101.473 51.1075 102.913 51.454C103.896 51.8809 104.931 52.1313 105.989 52.1945L106.366 52.2081C106.506 52.212 106.649 52.1958 106.788 52.1637C107.597 51.9741 108.197 51.6643 108.68 51.4148C109.443 51.0249 109.711 50.9466 110.38 51.0966C110.729 51.1759 111.009 51.3138 111.277 51.4331C112.086 51.8002 113.339 52.2141 114.691 51.828C116.772 51.2385 117.769 49.4506 118.498 48.1473C118.74 47.7151 118.966 47.2864 119.24 46.9368C119.755 46.2739 119.924 46.1583 119.965 46.1384C120.074 46.0977 120.551 46.1015 120.934 46.1042L121.565 46.1038C124.121 46.0904 126.079 45.1771 127.975 44.2959C129.298 43.6792 130.545 43.0982 131.94 42.8651C132.809 42.7195 133.879 42.8822 134.819 43.0484C135.446 43.1599 136.048 43.2632 136.629 43.298C138.547 43.4126 140.061 42.7353 141.259 41.2311C143.055 38.9702 144.146 37.8592 146.401 37.4215C147.789 37.1431 149.037 38.0998 149.729 38.8864C151.087 40.429 151.982 42.844 151.852 44.6276C151.568 48.5996 151.891 52.6168 152.202 56.5009C152.351 58.3753 152.5 60.2496 152.583 62.111C152.687 64.4787 152.818 66.8414 152.954 69.202C153.176 73.1437 153.406 77.2204 153.486 81.221C153.561 84.9855 153.276 88.8564 153.002 92.6023C152.892 94.0998 152.783 95.595 152.694 97.0869L152.399 101.905C151.824 111.253 151.229 120.92 151.318 130.506C151.352 134.342 151.046 138.299 150.748 142.122C150.244 148.595 149.724 155.294 150.784 161.914C151.046 163.553 151.352 165.188 151.657 166.827C152.646 172.15 153.582 177.18 153.163 182.345C153.015 184.177 153.144 185.945 153.269 187.651C153.375 189.083 153.472 190.436 153.418 191.806C153.363 193.179 153.509 194.382 153.654 195.545C153.751 196.325 153.849 197.107 153.873 197.946C153.941 200.278 153.962 202.609 153.982 204.941C154.011 207.816 154.038 210.758 154.153 213.701C153.365 213.416 152.522 213.283 151.608 213.221C148.436 213.032 147.17 215.059 146.248 216.537C145.711 217.394 145.249 218.137 144.5 218.541C143.655 218.998 142.281 219.021 140.953 219.043C139.534 219.068 138.068 219.095 136.736 219.59C135.538 220.037 134.731 220.729 134.08 221.281C133.283 221.963 132.801 222.374 131.711 222.394C129.165 222.442 126.239 222.273 123.978 221.956C122.479 221.746 120.762 221.032 119.1 220.341C118.221 219.974 117.357 219.617 116.536 219.33C115.862 219.096 115.153 218.91 114.438 218.726C113.426 218.464 112.47 218.216 111.676 217.825C110.671 217.327 110.205 216.457 109.618 215.354C109.036 214.266 108.377 213.037 107.089 212.163C106.611 211.838 106.006 211.782 105.474 212.011C103.467 212.872 102.444 215.356 101.698 217.17C101.55 217.527 101.418 217.854 101.292 218.122C99.6683 221.577 97.8059 225.257 95.1864 228.788C93.2357 231.419 89.5737 233.959 85.8593 235.266C83.8826 235.958 81.6932 235.082 79.3748 234.028C77.9031 233.358 76.3852 232.668 74.7334 232.372C70.6379 231.649 64.8662 233.111 61.794 234.604C61.1048 234.94 60.5894 235.307 60.18 235.599C59.5305 236.061 59.2342 236.27 58.4979 236.3C56.5869 236.383 54.3824 235.683 52.4315 235.077L51.7589 234.871C51.1437 234.684 50.515 234.422 49.8775 234.157C48.543 233.604 47.026 232.974 45.4186 232.878C43.1035 232.787 41.5415 233.74 40.1619 234.582C39.2944 235.112 38.5461 235.57 37.7534 235.713C36.6737 235.911 35.3126 235.538 33.8852 235.107C32.7079 234.752 31.4886 234.383 30.173 234.304C28.5521 234.207 27.1107 234.574 25.7665 235.428C24.6845 236.115 23.8458 236.956 23.0309 237.774C22.2569 238.547 21.526 239.28 20.6566 239.803C19.2662 240.638 18.7917 240.924 17.7064 240.913L17.5103 242.573L17.609 240.923L17.6044 240.922Z" fill="white"/>
<path d="M15.0471 85.6882C14.8246 83.5693 14.5926 81.3802 14.6176 79.1145C14.6366 77.4028 14.6121 75.7021 14.5918 74.006C14.5581 71.5168 14.5228 68.9399 14.6199 66.3732C14.6871 64.6083 14.4115 62.7354 14.1157 60.7491C13.6558 57.6619 13.1799 54.4661 14.0015 51.35C14.1269 50.8727 14.4593 50.475 14.9069 50.2616C15.3939 50.0303 15.9093 49.9264 16.4324 49.9576C18.042 50.0538 19.1424 51.3206 19.9454 52.2463C20.0994 52.4216 20.2405 52.5872 20.3722 52.7207C21.8423 54.2094 23.9631 56.1948 26.1865 57.8586C26.4623 51.5852 26.5359 45.4164 25.9847 39.0689C25.8661 37.6992 25.6839 36.337 25.5037 34.9794C25.1524 32.3387 24.7908 29.6054 24.8773 26.8001C24.9479 24.5258 25.1156 22.2484 25.2855 19.9711C25.3806 18.6816 25.4778 17.3944 25.5547 16.1082C25.5775 15.7257 25.5746 15.3215 25.5742 14.9129C25.5689 13.1549 25.5596 10.748 27.4889 9.22683C29.0116 8.02708 30.7894 7.87294 32.3566 7.73764C34.0414 7.59365 35.1129 7.46015 35.8966 6.59785C36.3234 6.1295 36.6301 5.63378 36.9567 5.10782C37.772 3.79396 38.7891 2.15544 41.6433 1.67055C43.3436 1.38158 44.9314 1.7683 46.3166 2.19005C46.6751 2.29902 47.0467 2.41327 47.4417 2.51544C50.6015 3.3261 54.6411 3.43958 60.4227 2.82885C65.0156 2.31768 68.8123 5.32813 72.0573 7.91726C72.696 8.42684 73.3195 8.92653 73.9321 9.38292C78.0974 12.4827 80.6685 14.2459 85.1226 14.5121L85.7496 14.5384C85.8303 14.5454 85.9045 14.5476 85.9848 14.5614C87.122 14.7596 88.1696 14.6089 89.1817 14.1105C90.4092 13.0614 91.7568 12.152 93.1866 11.4137C93.2609 11.3754 93.3395 11.342 93.4223 11.3133C94.3697 10.9928 95.4094 10.8618 96.5094 10.9276C98.6646 11.0564 100.764 11.9002 102.616 12.6462C103.195 12.8805 103.753 13.1047 104.287 13.296C105.924 13.8787 107.418 14.1768 109.281 14.2881L110.372 14.3309C110.59 14.3349 110.806 14.3389 111.019 14.3516C111.616 14.3873 113.204 14.4822 114.241 16.01C114.382 16.2204 114.475 16.4595 114.512 16.7131C114.86 19.1111 115.05 21.5491 115.081 23.8923C115.311 28.0409 115.611 32.2476 115.977 36.4246C116.196 39.3918 116.242 42.3869 116.276 45.3206C116.376 45.1717 116.471 45.0135 116.578 44.8785C118.106 42.9113 118.993 42.7309 120.959 42.7429L121.549 42.7445C123.366 42.7318 124.842 42.0456 126.552 41.2499C128.022 40.5655 129.54 39.8593 131.383 39.5497C132.656 39.3317 134.123 39.5047 135.42 39.7394C135.911 39.8271 136.383 39.9159 136.837 39.943C137.562 39.9864 138.037 39.8756 138.622 39.1428C140.556 36.7083 142.311 34.7929 145.757 34.1212C148.094 33.666 150.434 34.5848 152.267 36.672C154.225 38.8969 155.411 42.1913 155.22 44.8691C154.952 48.5884 155.265 52.4771 155.565 56.2371C155.719 58.1544 155.87 60.067 155.955 61.9689C156.003 63.0493 156.067 64.1306 156.124 65.2093C163.182 68.0936 170.553 68.7093 177.786 66.9237C181.634 65.973 185.206 64.2223 188.989 62.3719C192.726 60.539 196.593 58.6466 200.955 57.5469C203.769 56.8374 206.676 56.1043 209.695 56.2847C210.645 56.3415 211.576 56.4891 212.461 56.7216C216.063 57.671 218.883 59.871 221.608 62.0003C222.488 62.686 223.371 63.3785 224.287 64.0281L224.553 64.2191C225.8 65.1107 227.647 66.3907 228.705 65.9937C229.762 65.6124 230.738 64.2857 231.684 63.0021C232.417 62.0066 233.175 60.9767 234.097 60.1787C238.424 56.4304 242.819 56.3564 246.6 56.5823C247.401 56.6302 248.215 56.6968 249.045 56.7666L250.641 56.8979C253.36 57.1322 255.356 57.2493 257.554 55.9351C259.755 54.621 261.22 53.9812 264.082 53.6651C266.831 53.3625 269.501 53.457 271.98 53.6051L276.165 53.88C279.831 54.0991 282.888 54.1045 285.905 53.4228C288.365 52.8672 290.9 52.6752 293.654 52.8398C299.397 53.1831 305.065 55.0482 310.547 56.8507C314.259 58.0715 317.765 59.2239 321.276 59.9388C322.698 60.2258 324.153 60.3397 325.263 60.406C325.875 60.4426 326.491 60.4705 327.104 60.4981C329.113 60.5868 331.139 60.7662 333.304 61.0303C334.79 61.2089 336.311 61.3941 337.815 61.484C340.334 61.6345 342.256 61.4755 343.865 60.9813C344.629 60.7464 345.256 60.3596 345.982 59.9091C347.02 59.2641 348.2 58.5332 349.883 58.2634C350.891 58.0992 352.071 58.062 353.483 58.1464C354.521 58.2083 355.561 58.3289 356.523 58.4403L356.926 58.4868C357.729 58.5797 358.632 58.9008 359.677 59.2708C360.787 59.6649 362.047 60.1128 362.972 60.1681C363.356 60.191 363.577 60.1392 363.657 60.0789C363.744 60.0189 363.744 60.0189 363.813 59.8547C364.313 58.6836 365.142 58.1563 366.673 58.0322C368.691 57.852 370.273 59.1678 371.475 60.1914C371.853 60.5125 372.221 60.8309 372.596 61.0778C374.261 62.1784 376.767 63.7469 379.228 64.949C381.474 66.0463 383.647 66.6251 386.067 66.7698C387.906 66.8797 389.896 66.745 392.519 66.3338L394.204 66.0641C397.812 65.4806 401.223 64.9279 404.952 65.0633C406.607 65.1218 408.256 65.2765 409.905 65.4289C411.55 65.5788 413.194 65.7422 414.851 65.7874C417.089 65.8605 419.403 65.3232 421.852 64.7557C424.535 64.1326 427.31 63.4926 430.123 63.6607C432.191 63.7843 434.033 64.3231 435.756 65.315C438.875 67.1087 441.838 69.2523 444.704 71.3249C448.369 73.9773 452.159 76.7179 456.185 78.6399C460.926 80.8964 464.607 82.176 468.122 82.7811L468.593 82.8609C470.185 83.1379 471.828 83.4246 473.422 83.5199C476.203 83.6862 478.302 83.2167 480.026 82.0469C481.2 81.2461 482.281 80.2692 483.429 79.2311C484.965 77.8436 486.552 76.4052 488.455 75.354C491.706 73.5571 494.745 73.2988 498.308 73.4646L499.159 73.511L502.698 73.7516C504.839 73.8796 507.135 73.9203 509.41 73.3604L510.684 73.0392C513.308 72.3745 515.791 71.7439 518.834 71.8652C521.138 71.9557 523.451 72.085 525.763 72.2232L532.506 72.6419C535.765 72.8412 538.618 74.1857 541.375 75.4863C542.394 75.9692 543.417 76.4502 544.456 76.8692C547.914 78.2634 552.439 79.8987 556.774 80.1578C558.283 80.2479 559.694 80.1661 560.971 79.908C564.384 79.2275 565.851 77.4116 568.277 74.405L568.822 73.7327C571.157 70.8552 573.828 68.9092 576.587 67.0044C580.02 64.6371 583.672 62.6824 587.445 61.1929C589.775 60.2726 592.269 60.2017 593.951 60.3022C594.68 60.3458 595.396 60.4312 596.077 60.5437C598.602 60.9685 600.162 62.375 601.671 63.738C602.223 64.2356 602.791 64.7522 603.438 65.2353C604.72 66.1896 606.377 67.3325 607.94 67.1925C608.886 66.9303 609.807 66.4914 610.843 65.7744C612.562 64.8737 614.388 64.4127 616.096 64.4092C617.679 64.2345 619.329 64.3309 620.925 64.4218C624.529 64.6282 627.643 64.8076 629.806 62.2768C630.259 61.7494 630.637 61.231 630.998 60.7318C631.967 59.4091 632.966 58.0389 634.81 57.0761C637.243 55.8051 639.727 55.774 641.622 55.8872C641.905 55.9041 642.19 55.9256 642.472 55.9493C642.943 55.9909 643.418 56.0439 643.894 56.0948C645.479 56.2748 647.092 56.3937 648.245 56.2C648.958 56.081 649.632 55.8878 650.308 55.6992C651.339 55.4129 652.406 55.1153 653.627 55.0042C656.757 54.7311 659.869 54.9059 662.561 55.5157C663.695 55.7743 664.775 56.1822 665.821 56.5792C667.892 57.3652 669.839 58.0001 671.455 57.4547C674.277 56.501 676.927 56.3406 679.493 56.1887C680.608 56.1206 681.74 56.0559 682.915 55.9218C685.213 55.6596 687.559 55.16 689.828 54.6761C692.108 54.1905 694.467 53.6873 696.855 53.4012C700.42 52.97 703.9 53.1242 706.886 53.3026L710.334 53.5199C710.729 53.5435 711.224 53.6248 711.764 53.7154C712.277 53.8022 712.848 53.9059 713.398 53.9387C714.237 53.9889 714.447 53.8309 714.458 53.8113C714.689 53.338 715.132 53.0008 715.654 52.9018C716.165 52.8066 716.712 52.9538 717.105 53.314C720.349 56.2623 720.239 62.1033 720.157 66.3681C720.148 66.9399 720.138 67.4781 720.136 67.9696L720.136 68.4252C720.12 79.5539 720.105 91.0621 718.525 101.981C717.834 106.743 716.625 111.493 715.453 116.087C714.973 117.978 714.493 119.864 714.05 121.741C712.028 130.319 710.814 139.093 710.235 149.348C709.913 155.076 709.58 160.796 709.231 166.519C708.752 174.379 708.774 181.252 709.295 188.812C709.351 189.612 709.421 190.4 709.49 191.178C709.686 193.39 709.894 195.676 709.723 198.093C709.668 198.866 709.677 199.731 709.682 200.627C709.697 202.713 709.71 204.869 709.085 206.69C708.932 207.134 708.602 207.496 708.17 207.686C707.644 207.915 707.098 208.015 706.543 207.982C704.992 207.889 703.818 206.802 702.957 206.005L702.642 205.71C702.244 205.354 701.847 204.983 701.446 204.608C699.875 203.143 698.249 201.625 696.532 200.914C695.411 200.452 694.115 200.192 692.451 200.093C691.261 200.022 690.046 200.039 688.831 200.054C686.398 200.09 683.902 200.047 681.976 199.613C681.316 199.466 680.694 199.276 680.088 199.089C678.531 198.606 677.338 198.317 676.109 198.827C673.88 199.753 672.834 201.794 671.508 204.379L671.141 205.089C670.217 206.877 668.679 209.236 666.012 209.077C664.591 208.992 663.337 208.183 662.122 207.403C661.056 206.715 659.954 206.003 658.78 205.782C657.412 205.523 656.08 205.765 654.627 206.026C652.512 206.398 650.091 206.671 647.93 205.886C644.935 204.807 642.599 202.732 640.34 200.727C637.64 198.33 635.089 196.068 631.55 195.795C631.003 195.763 630.459 195.773 629.914 195.776C628.57 195.797 627.205 195.745 626.082 195.457C623.981 194.912 622.391 193.627 620.99 192.493C620.074 191.754 619.212 191.056 618.274 190.589C617.268 190.082 616.103 190.008 614.298 190.347C611.543 190.871 609.149 190.822 606.969 190.692L605.898 190.621C605.335 190.581 604.758 190.508 604.174 190.437C602.586 190.246 600.997 190.14 599.976 190.485C598.852 190.869 597.546 191.678 596.285 192.458C595.731 192.799 595.188 193.133 594.675 193.43C594.166 193.718 593.697 194 593.246 194.272C590.888 195.686 588.852 196.909 585.395 196.902C582.245 196.898 578.694 196.711 575.883 196.332C574.057 196.086 572.421 195.294 570.974 194.593C568.905 193.587 567.071 192.788 565.325 193.579C564.031 194.162 562.797 194.409 561.558 194.335C558.99 194.182 556.983 192.657 555.039 191.18C554.121 190.483 553.173 189.762 552.156 189.174C549.68 187.739 548.37 187.641 546.83 188.797C546.037 189.389 545.4 190.449 544.724 191.571C543.906 192.928 543.061 194.33 541.734 195.276C540.578 196.103 539.197 196.476 537.637 196.383C535.56 196.259 533.493 195.343 531.669 194.535C530.738 194.125 529.862 193.736 529.158 193.535C528.742 193.415 528.307 193.342 527.871 193.316C525.559 193.178 523.513 194.351 522.2 195.359C521.458 195.93 520.76 196.611 520.081 197.266C518.32 198.977 516.325 200.914 513.245 201.08C509.46 201.269 507.497 198.449 505.803 195.993C504.352 193.886 503.365 192.597 501.922 192.468C501.114 192.42 500.103 193.459 499.21 194.376C498.749 194.851 498.296 195.306 497.85 195.682C495.602 197.559 493.493 197.762 491.261 197.977L490.984 198.003C488.335 198.265 485.943 198.169 483.41 198.067L481.727 198.004C478.585 197.9 476.804 199.026 473.75 201.759C470.308 204.837 467.022 207.117 462.185 208.233C461.182 208.467 460.191 208.624 459.224 208.775C456.245 209.241 453.889 209.609 451.889 212.202C450.484 214.021 449.759 216.126 448.995 218.357C448.641 219.382 448.284 220.42 447.777 221.656C445.835 226.44 444.883 227.642 443.888 228.106C443.226 228.412 442.628 228.545 442.06 228.511C440.315 228.406 439.572 226.923 438.825 225.44C438.447 224.681 438.138 223.969 437.854 223.298C437.084 221.51 436.578 220.329 435.064 219.17C432.879 217.504 430.313 216.782 428.488 217.412C427.193 217.855 425.993 218.823 424.722 219.847C423.148 221.113 421.52 222.425 419.416 223.025C415.661 224.1 413.122 222.709 411.027 221.006C406.62 217.431 404.559 216.168 400.033 216.732C398.705 216.896 397.356 217.223 395.928 217.567C393.21 218.226 390.346 218.906 387.49 218.483C386.011 218.269 384.676 217.801 383.385 217.351C382.533 217.056 381.686 216.754 380.801 216.544C379.637 216.268 378.469 216.137 377.231 215.998C375.417 215.793 373.541 215.582 371.605 214.885C369.596 214.159 367.614 213.268 365.699 212.406C364.964 212.075 364.229 211.746 363.496 211.426C362.396 210.943 361.378 210.75 360.199 210.527C359.542 210.402 358.869 210.272 358.159 210.09C357.607 209.95 357.078 209.783 356.554 209.615C355.475 209.27 354.571 208.985 353.563 209.003C351.473 209.058 349.817 210.526 347.662 213.043C347.352 213.404 347.062 213.885 346.755 214.37C346.098 215.417 345.356 216.605 344.297 217.282C343.416 217.847 342.365 218.099 341.173 218.027C339.403 217.922 337.665 217.122 336.513 216.532C335.282 215.902 334.071 215.235 332.867 214.577C328.45 212.147 324.275 209.854 319.609 209.575C318.458 209.507 317.342 209.561 316.195 209.74C314.594 209.99 313.36 210.776 311.927 211.684C311.259 212.107 310.574 212.54 309.829 212.939C308.965 213.406 307.923 213.874 306.753 213.804C305.781 213.746 304.879 213.344 303.995 212.571C302.682 211.426 302.075 209.342 301.488 207.325C301.215 206.384 300.931 205.411 300.651 204.891C298.797 201.413 296.023 199.274 292.839 198.868C290.677 198.595 288.488 198.613 286.147 198.628C282.601 198.654 278.798 198.543 275.959 197.783C273.156 197.034 270.611 195.261 268.704 193.801C267.969 193.238 267.328 192.699 266.734 192.199C264.678 190.471 263.496 189.489 260.922 189.549C258.759 189.583 256.653 190.066 254.426 190.577C253.092 190.881 251.714 191.196 250.302 191.412C248.073 191.759 246.097 193.471 244.008 195.288C241.451 197.505 238.554 200.017 234.723 200.107C232.221 200.179 230.721 198.889 229.088 197.478C228.527 196.993 227.996 196.517 227.483 196.053C225.39 194.168 223.738 192.68 221.198 191.743C219.184 190.998 217.341 190.848 215.204 190.677C214.69 190.635 214.163 190.592 213.628 190.543C212.774 190.46 211.91 190.15 211.071 189.853C210.324 189.584 209.55 189.307 208.979 189.273C208.842 189.264 208.655 189.269 208.586 189.301C208.424 189.441 208.159 190.07 207.999 190.446C207.589 191.416 207.125 192.518 206.077 193.162C205.282 193.649 204.321 193.863 203.218 193.797C201.977 193.723 200.724 193.307 199.717 192.973C199.341 192.847 198.988 192.729 198.68 192.648L197.686 192.38C194.212 191.443 192.272 191.073 189.221 192.476C188.326 192.887 187.395 193.419 186.439 193.964C184.17 195.258 181.597 196.723 178.975 196.934C174.316 197.314 170.132 196.193 165.894 197.102C163.023 197.716 160.123 199.065 157.273 200.544C157.298 202.003 157.328 203.461 157.343 204.919C157.379 208.982 157.419 213.18 157.706 217.271C157.76 218.033 157.29 218.735 156.565 218.979C155.834 219.229 155.037 218.953 154.616 218.315C153.793 217.073 153.092 216.702 151.344 216.584C150.327 216.523 150.012 216.859 149.097 218.324C148.442 219.373 147.625 220.68 146.095 221.507C144.524 222.356 142.652 222.388 141.001 222.417C139.817 222.438 138.696 222.457 137.908 222.753C137.267 222.991 136.802 223.387 136.265 223.847C135.285 224.684 134.065 225.727 131.762 225.771C130.251 225.795 128.625 225.747 127.054 225.644C127.581 230.96 127.986 236.311 128.368 241.501L128.735 246.475C128.834 247.768 128.962 249.059 129.089 250.358C129.451 254.031 129.823 257.832 129.54 261.622C129.296 264.871 129.084 268.127 128.93 271.382C128.91 271.787 128.917 272.128 128.92 272.416C128.954 274.775 128.138 275.658 125.566 276.054C124.943 276.154 124.297 276.182 123.652 276.144C121.477 276.014 119.584 275.16 117.752 274.337C115.9 273.505 114.217 272.718 112.454 272.875C110.611 273.034 109.39 274.618 108.098 276.294C107.465 277.116 106.813 277.961 106.065 278.644C104.342 280.213 102.598 280.486 101.058 280.729C100.203 280.862 99.3977 280.989 98.5439 281.326C97.5748 281.708 96.7819 282.384 95.9462 283.097C94.7642 284.101 93.4251 285.245 91.419 285.713C90.4845 285.931 89.4952 286.011 88.476 285.95C85.7595 285.788 83.1885 284.662 81.0314 283.586C80.5589 283.349 80.0673 283.093 79.5516 282.824C77.0432 281.518 73.9209 279.893 71.2538 279.733C69.413 279.623 68.0191 280.213 66.867 281.583C66.6269 281.87 66.4189 282.145 66.2257 282.4C65.2427 283.693 64.1277 285.159 61.1486 284.981C60.877 284.965 60.5836 284.934 60.2663 284.89C59.2118 284.742 58.3312 284.51 57.4796 284.284C56.4816 284.018 55.5412 283.769 54.3357 283.696C54.3334 283.696 54.3335 283.696 54.3312 283.696C53.7383 283.665 53.1332 283.649 52.5214 283.633C51.7611 283.612 50.9919 283.589 50.2286 283.543C48.8322 283.46 47.7147 283.31 46.7149 283.075C45.3886 282.762 44.1911 282.215 43.0311 281.683C41.6384 281.048 40.327 280.446 38.9823 280.366C38.9801 280.366 38.98 280.366 38.98 280.366C38.3872 280.332 37.7338 280.484 37.0417 280.643C35.8126 280.926 34.2178 281.185 32.8056 280.726C29.2501 279.562 27.9418 275.78 28.2207 272.546C28.3493 271.072 27.9664 269.675 27.557 268.194C27.2057 266.909 26.8369 265.578 26.7554 264.079C26.7081 263.211 26.8348 262.373 26.9488 261.634C27.0377 261.052 27.1223 260.502 27.1134 260.01C27.0987 259.012 26.9581 258.01 26.8119 256.95C26.6355 255.68 26.4526 254.367 26.4791 252.982C26.5633 248.181 26.862 243.334 27.2079 238.564C26.5858 239.021 26.0034 239.568 25.4042 240.169C24.5199 241.055 23.6068 241.97 22.2561 242.781C20.8282 243.64 19.6972 244.318 17.6571 244.299C17.6278 244.3 17.4187 244.292 17.3895 244.29C16.2176 244.22 15.2187 243.745 14.4973 242.923C12.8252 241.007 13.0799 237.725 13.2685 235.323C13.3022 234.871 13.3361 234.456 13.3479 234.106C13.4059 232.534 13.125 231.013 12.8314 229.404C12.6666 228.505 12.5023 227.597 12.3866 226.668C12.0193 223.692 11.8683 220.677 11.725 217.759C11.5976 215.179 11.4664 212.511 11.1839 209.924C10.7113 205.581 10.3734 201.922 10.6769 197.711L10.8531 195.367C11.1382 191.577 11.4357 187.655 11.3893 183.832C11.3175 177.946 11.2213 171.112 10.9624 164.512C10.8698 162.141 10.6156 159.721 10.3702 157.381C9.98935 153.764 9.5977 150.026 9.76036 146.249C10.1106 138.09 11.3797 129.936 12.6057 122.051C14.2225 111.66 15.8966 100.916 15.4222 90.2316C15.3636 88.6859 15.2033 87.1836 15.0471 85.6882ZM111.246 17.7615C111.159 17.7384 111.023 17.7168 110.814 17.7043L109.077 17.6408C106.906 17.5111 105.078 17.1459 103.145 16.458C102.569 16.253 101.971 16.0107 101.353 15.7628C99.0032 14.8164 96.4327 13.9086 94.62 14.458C93.4103 15.095 92.2755 15.8757 91.2416 16.7769C91.1417 16.8652 91.0336 16.9396 90.9151 16.9999C89.2403 17.8807 87.4377 18.1838 85.5468 17.8934C79.4392 17.7372 75.9873 15.1043 71.9124 12.0749C71.2696 11.5965 70.6136 11.0747 69.945 10.5386C67.0463 8.22386 64.0955 5.83863 60.7797 6.16798C54.5578 6.83097 50.1774 6.69038 46.5961 5.76923C46.1479 5.65265 45.7298 5.5244 45.3271 5.40156C44.1786 5.05233 43.2541 4.80177 42.2092 4.98176C40.8548 5.21284 40.531 5.73223 39.8228 6.87516C39.4513 7.47476 39.0297 8.15667 38.3957 8.85058C36.6833 10.7371 34.4459 10.9289 32.6478 11.0841C31.3932 11.1909 30.3106 11.2856 29.5778 11.8613C28.9818 12.333 28.94 13.3721 28.9456 14.8989C28.9483 15.3817 28.9469 15.8575 28.92 16.3071C28.8422 17.6089 28.7439 18.914 28.6479 20.2192C28.4809 22.4473 28.3161 24.6777 28.2484 26.9028C28.1691 29.4369 28.4987 31.9146 28.8466 34.5371C29.035 35.9469 29.2209 37.3588 29.3456 38.7782C29.8682 44.812 29.8508 50.6429 29.623 56.5286C30.3124 55.1331 31.2679 53.9242 32.5483 52.894C33.5655 52.1601 34.8153 51.8308 36.2633 51.9173C38.0391 52.0235 39.8755 52.7371 41.4962 53.3637C42.3044 53.6769 43.0727 53.9787 43.7556 54.1632C46.5563 54.912 49.1137 55.8123 51.8211 56.7666L53.5977 57.3868C54.006 57.5302 54.4168 57.7051 54.8298 57.8825C55.7811 58.2873 56.7745 58.5554 57.0613 58.393C58.402 57.6358 60.2925 55.2571 61.5425 53.6818L62.3555 52.6686C63.2763 51.5497 64.1082 50.3715 64.9869 49.1265C65.8829 47.8579 66.8108 46.544 67.8379 45.3034C71.4057 40.9844 76.1859 38.206 80.624 37.8719C82.8189 37.7135 83.9865 38.459 84.991 39.2935C86.8244 40.8105 88.4138 43.2446 89.8197 45.3916C90.2263 46.0152 90.6165 46.611 90.9878 47.1472C91.2535 47.5267 91.515 47.9756 91.7866 48.4453C92.3013 49.3336 93.0772 50.6752 93.6744 50.7109C93.8293 50.7201 94.0446 50.6612 94.2931 50.5368C94.5322 50.4187 94.6976 50.2153 94.9906 49.8355C95.4814 49.2004 96.2215 48.2412 97.7674 47.8195C97.8636 47.7939 97.9592 47.7771 98.0565 47.7695C100.007 47.5897 101.965 47.7471 103.878 48.2274C103.976 48.2512 104.073 48.2862 104.165 48.3276C104.825 48.6275 105.489 48.7951 106.189 48.8369L106.203 48.8377C106.526 48.7359 106.812 48.5913 107.131 48.4263C108.023 47.9678 109.152 47.3708 111.134 47.8193C111.768 47.9649 112.266 48.19 112.665 48.371C112.775 48.4202 112.861 48.4567 112.944 48.4931C112.936 47.8394 112.925 47.1833 112.919 46.5342C112.883 43.2861 112.85 39.9259 112.613 36.6882C112.246 32.5044 111.941 28.2593 111.708 24.005C111.677 21.9289 111.523 19.8321 111.246 17.7615ZM187.813 189.415C191.661 187.647 194.668 188.076 198.577 189.129L199.552 189.392C199.923 189.49 200.34 189.629 200.791 189.778C202.079 190.205 203.771 190.625 204.296 190.308C204.463 190.165 204.735 189.524 204.896 189.138C205.303 188.175 205.811 186.975 206.95 186.363C208.423 185.574 210.558 186.087 212.218 186.685C212.86 186.914 213.522 187.151 213.952 187.19C214.474 187.242 214.983 187.283 215.483 187.322C217.77 187.506 219.929 187.68 222.381 188.587C225.53 189.752 227.583 191.599 229.755 193.558C230.251 194.008 230.766 194.467 231.366 194.988C232.803 196.232 233.496 196.774 234.654 196.747C237.267 196.683 239.472 194.774 241.803 192.752C244.162 190.702 246.605 188.587 249.795 188.093C251.105 187.889 252.396 187.593 253.68 187.3C255.98 186.773 258.36 186.228 260.875 186.185C264.754 186.116 266.665 187.73 268.922 189.629C269.482 190.098 270.082 190.606 270.772 191.134C272.43 192.405 274.619 193.941 276.843 194.536C279.333 195.199 282.807 195.29 286.131 195.266C288.48 195.247 290.928 195.23 293.28 195.534C297.582 196.081 301.263 198.844 303.643 203.312C304.087 204.138 304.404 205.232 304.739 206.388C305.103 207.644 305.656 209.543 306.226 210.037C306.524 210.295 306.772 210.433 306.965 210.445C307.293 210.465 307.846 210.188 308.235 209.982C308.905 209.618 309.523 209.226 310.125 208.845C311.729 207.827 313.387 206.777 315.68 206.418C317.051 206.201 318.443 206.136 319.819 206.219C325.243 206.543 329.95 209.129 334.503 211.633C335.679 212.278 336.861 212.928 338.063 213.543C338.758 213.901 341.478 215.103 342.479 214.455C342.9 214.184 343.456 213.299 343.901 212.59C344.275 211.992 344.664 211.374 345.1 210.861C347.219 208.386 349.79 205.738 353.48 205.642C355.027 205.607 356.343 206.015 357.59 206.413C358.048 206.559 358.512 206.708 358.998 206.832C359.637 206.993 360.246 207.108 360.838 207.222C362.099 207.461 363.407 207.71 364.854 208.344C365.6 208.67 366.346 209.006 367.092 209.342C368.95 210.179 370.87 211.041 372.756 211.722C374.319 212.286 375.92 212.465 377.616 212.656C378.898 212.8 380.225 212.951 381.587 213.275C382.611 213.518 383.573 213.854 384.502 214.179C385.694 214.594 386.822 214.989 387.977 215.157C390.253 215.488 392.608 214.91 395.132 214.3C396.59 213.947 398.099 213.582 399.617 213.397C405.499 212.664 408.67 214.759 413.158 218.401C415.393 220.216 416.328 220.409 418.489 219.795C419.933 219.381 421.23 218.338 422.603 217.233C424.045 216.071 425.533 214.871 427.392 214.235C428.353 213.904 429.393 213.771 430.478 213.836C433.441 214.013 435.909 215.583 437.117 216.507C439.335 218.197 440.124 220.035 440.958 221.982C441.221 222.595 441.498 223.247 441.872 223.992C442.047 224.341 442.253 224.751 442.417 225.021C442.7 224.65 443.378 223.534 444.736 220.19C445.137 219.21 445.472 218.231 445.802 217.268C446.626 214.877 447.472 212.407 449.213 210.152C452.036 206.497 455.424 205.966 458.7 205.452C459.589 205.312 460.498 205.171 461.421 204.96C465.559 204.004 468.439 201.987 471.495 199.254C474.521 196.548 477.201 194.49 481.835 194.641L483.544 194.705C485.958 194.802 488.237 194.894 490.655 194.654L490.938 194.626C492.993 194.428 494.237 194.31 495.682 193.101C496.049 192.795 496.414 192.415 496.791 192.027C498.119 190.665 499.77 188.97 502.249 189.118L502.253 189.118C505.355 189.394 507.071 191.885 508.587 194.085C510.218 196.452 511.299 197.79 513.063 197.72C514.878 197.62 516.136 196.4 517.726 194.856C518.472 194.131 519.243 193.384 520.14 192.695C523.325 190.248 526.884 189.398 530.09 190.304C531.016 190.57 531.997 191.004 533.038 191.463C535.446 192.528 538.266 193.621 539.77 192.546C540.528 192.003 541.163 190.952 541.834 189.839C542.646 188.491 543.487 187.095 544.803 186.11C546.199 185.064 547.713 184.58 549.309 184.676C550.696 184.758 552.1 185.251 553.857 186.267C555.055 186.961 556.089 187.75 557.091 188.51C559.514 190.354 561.382 191.669 563.938 190.52C565.026 190.028 566.167 189.816 567.33 189.885C569.205 189.997 570.856 190.796 572.454 191.572C573.785 192.217 575.047 192.827 576.336 193.001C578.994 193.359 582.399 193.534 585.404 193.54C587.922 193.549 589.35 192.692 591.507 191.393C591.979 191.109 592.472 190.816 593.002 190.51C593.487 190.236 593.992 189.923 594.509 189.602C595.929 188.723 597.399 187.817 598.887 187.306C599.958 186.944 601.131 186.814 602.586 186.901C603.257 186.941 603.93 187.024 604.594 187.104C605.118 187.172 605.637 187.234 606.144 187.271L607.171 187.339C609.133 187.456 611.275 187.504 613.668 187.047C616.25 186.562 618.111 186.747 619.789 187.586C621.054 188.218 622.102 189.067 623.117 189.888C624.361 190.894 625.539 191.847 626.93 192.206C627.744 192.416 628.827 192.432 629.873 192.42C630.498 192.413 631.124 192.407 631.751 192.445C631.762 192.445 631.973 192.46 631.979 192.461C636.483 192.808 639.583 195.562 642.58 198.221C644.694 200.096 646.692 201.87 649.077 202.731C650.55 203.259 652.239 203.039 654.034 202.718C655.703 202.422 657.488 202.116 659.408 202.482C661.23 202.827 662.742 203.801 663.953 204.583C664.801 205.13 665.675 205.692 666.21 205.724C666.915 205.766 667.796 204.216 668.142 203.547L668.502 202.85C669.943 200.036 671.432 197.126 674.805 195.725C676.885 194.862 679.14 195.282 681.078 195.875C681.602 196.039 682.142 196.204 682.709 196.332C684.354 196.698 686.615 196.718 688.779 196.693C690.076 196.674 691.375 196.659 692.647 196.735C694.697 196.858 696.337 197.196 697.815 197.805C700.104 198.75 701.956 200.479 703.746 202.153C704.133 202.511 704.512 202.87 704.893 203.209L705.252 203.538C705.5 203.769 705.845 204.088 706.172 204.316C706.321 203.212 706.311 201.911 706.304 200.64C706.297 199.657 706.294 198.7 706.354 197.849C706.504 195.703 706.321 193.647 706.126 191.471C706.055 190.67 705.982 189.86 705.925 189.035C705.392 181.328 705.372 174.318 705.859 166.309C706.208 160.59 706.541 154.874 706.862 149.154C707.453 138.697 708.692 129.74 710.759 120.965C711.206 119.068 711.689 117.167 712.18 115.256C713.33 110.746 714.517 106.082 715.183 101.496C716.727 90.8131 716.743 79.4262 716.757 68.4164L716.757 67.9607C716.763 67.4537 716.774 66.8931 716.784 66.3011C716.838 63.4333 716.919 59.3324 715.691 56.9514C715.061 57.21 714.246 57.3544 713.195 57.2916C712.522 57.2513 711.828 57.1358 711.194 57.0283C710.791 56.9593 710.423 56.8924 710.129 56.8748L706.686 56.6578C703.848 56.4882 700.545 56.3402 697.246 56.7334C695.013 56.9995 692.731 57.4849 690.522 57.9568C688.176 58.4585 685.747 58.9756 683.289 59.2552C682.052 59.399 680.858 59.4691 679.685 59.5404C677.234 59.688 674.921 59.8258 672.529 60.6347C671.57 60.9612 670.587 61.0888 669.527 61.0254C667.778 60.9209 666.166 60.3105 664.608 59.7191C663.63 59.3463 662.705 58.997 661.8 58.7925C659.448 58.2568 656.695 58.1058 653.918 58.3506C653.008 58.4309 652.133 58.6771 651.207 58.9361C650.419 59.1561 649.631 59.3716 648.798 59.5126C647.3 59.7666 645.419 59.6474 643.508 59.4344C643.058 59.3851 642.612 59.336 642.166 59.2981L641.408 59.2416C639.242 59.1121 637.688 59.3605 636.363 60.0535C635.218 60.6518 634.551 61.5592 633.714 62.7101C633.302 63.2736 632.873 63.8586 632.364 64.4567C629.113 68.2626 624.654 68.0051 620.72 67.7789C619.196 67.6901 617.759 67.6087 616.281 67.7605C614.924 67.7692 613.656 68.0953 612.592 68.6333C611.367 69.4984 610.041 70.1217 608.656 70.479C608.581 70.4992 608.503 70.5125 608.424 70.5212C605.746 70.8348 603.312 69.3425 601.405 67.9243C600.668 67.3729 600.022 66.7933 599.393 66.2305C598.087 65.0524 597.055 64.1198 595.502 63.8608C593.142 63.4639 590.498 63.5999 588.67 64.3213C585.138 65.7152 581.712 67.5487 578.49 69.7693C575.941 71.5272 573.484 73.3176 571.429 75.8481L570.891 76.5097C568.288 79.7347 566.232 82.2809 561.619 83.2039C560.055 83.5167 558.354 83.6171 556.556 83.5096C551.734 83.2214 546.87 81.4739 543.175 79.9825C542.075 79.5373 540.994 79.0305 539.916 78.5216C537.335 77.3033 534.896 76.1542 532.283 75.9935L525.547 75.5752C523.255 75.4382 520.966 75.3127 518.685 75.2212C516.132 75.118 513.988 75.6633 511.502 76.2936L510.205 76.6202C507.493 77.2887 504.891 77.2476 502.484 77.1038L498.945 76.8631L498.144 76.8197C495.066 76.6761 492.645 76.8749 490.08 78.2907C488.517 79.1558 487.142 80.4003 485.685 81.7184C484.506 82.7861 483.286 83.8895 481.917 84.82C479.543 86.4336 476.778 87.0854 473.21 86.8722C471.426 86.7655 469.686 86.4618 468.003 86.1704L467.535 86.0885C463.703 85.4285 459.75 84.0631 454.718 81.6657C450.413 79.6127 446.498 76.7792 442.71 74.0409C439.916 72.0174 437.024 69.9253 434.062 68.2218C430.892 66.4004 426.857 67.0392 422.605 68.0265C420.054 68.617 417.412 69.2291 414.732 69.143C413.021 69.0856 411.302 68.929 409.581 68.77C407.995 68.6236 406.404 68.4746 404.819 68.4181C401.423 68.2936 398.174 68.8223 394.734 69.3754L393.035 69.6487C390.16 70.0987 387.946 70.2447 385.853 70.1197C383.011 69.9498 380.356 69.2434 377.729 67.9618C375.107 66.6804 372.468 65.0299 370.717 63.8724C370.236 63.5541 369.759 63.1552 369.275 62.7424C368.509 62.0928 367.72 61.4216 366.953 61.3757C366.946 61.3753 366.941 61.3751 366.935 61.3747C366.887 61.3786 366.844 61.3827 366.806 61.3871C366.63 61.765 366.311 62.3049 365.608 62.8061C363.916 64.0092 360.923 63.2781 358.531 62.428C357.752 62.1503 356.947 61.8642 356.529 61.8168L356.124 61.7701C354.141 61.5394 351.807 61.3483 350.411 61.5723C349.398 61.7385 348.636 62.2093 347.751 62.7558C346.944 63.2575 346.029 63.8224 344.847 64.1872C342.841 64.8036 340.538 65.0072 337.604 64.8318C336.032 64.7379 334.442 64.5463 332.889 64.3592C330.814 64.105 328.87 63.935 326.945 63.849C326.316 63.8204 325.684 63.7917 325.053 63.754C323.834 63.6811 322.222 63.5556 320.595 63.2248C316.888 62.4758 313.123 61.2339 309.482 60.0375C304.206 58.3012 298.75 56.5071 293.445 56.19C291.014 56.0447 288.792 56.2104 286.647 56.6929C283.239 57.4657 279.91 57.4642 275.958 57.2281L271.773 56.9532C269.445 56.8141 266.947 56.7232 264.448 57.0003C262.214 57.2484 261.197 57.6703 259.284 58.8107C256.279 60.6066 253.665 60.5154 250.355 60.2413L248.759 60.11C247.957 60.0418 247.17 59.9768 246.393 59.9304C242.316 59.6867 239.358 60.0622 236.307 62.706C235.668 63.2604 235.05 64.0967 234.398 64.9848C233.214 66.5909 231.872 68.4143 229.857 69.1447C229.256 69.3624 228.613 69.4542 227.944 69.4142C225.861 69.2897 223.964 67.9327 222.581 66.9409L222.324 66.7594C221.369 66.0805 220.443 65.3585 219.524 64.6391C216.954 62.6335 214.526 60.7375 211.596 59.9653C208.596 59.1799 205.306 59.9104 201.578 60.8481C197.76 61.8097 194.22 63.5443 190.472 65.3788C186.696 67.2273 182.792 69.14 178.591 70.1774C171.166 72.0143 163.584 71.5365 156.31 68.8794C156.312 68.9222 156.314 68.9672 156.318 69.0101C156.54 72.9809 156.773 77.0871 156.857 81.1506C156.933 85.0724 156.641 89.0237 156.363 92.8456C156.254 94.3252 156.145 95.8048 156.057 97.2833L155.762 102.108C155.191 111.396 154.599 121.004 154.686 130.469C154.723 134.454 154.41 138.482 154.107 142.379C153.617 148.66 153.112 155.151 154.112 161.381C154.369 162.991 154.67 164.6 154.97 166.212C155.955 171.517 156.977 177.001 156.522 182.613C156.394 184.188 156.508 185.75 156.63 187.405C156.736 188.869 156.848 190.381 156.782 191.944C156.737 193.042 156.863 194.057 156.995 195.131C157.065 195.688 157.1 196.271 157.149 196.847C159.757 195.55 162.428 194.399 165.194 193.807C170.075 192.761 174.453 193.925 178.71 193.578C180.582 193.425 182.714 192.21 184.776 191.036C185.774 190.467 186.812 189.878 187.813 189.415ZM31.595 272.822C31.4794 274.153 31.8051 276.846 33.8691 277.519C34.5496 277.744 35.3349 277.573 36.292 277.354C37.1417 277.16 38.1058 276.937 39.2195 276.999C41.1682 277.116 42.8371 277.88 44.4489 278.618C45.5015 279.101 46.5015 279.558 47.4992 279.791C48.7988 280.099 50.7074 280.207 52.6238 280.261C53.2627 280.276 53.8947 280.294 54.6268 280.333C56.0861 280.42 57.2417 280.725 58.355 281.021C59.1446 281.23 59.892 281.429 60.7433 281.547C60.9643 281.581 61.1681 281.602 61.3567 281.613C62.5353 281.684 62.6894 281.48 63.5451 280.357C63.7701 280.06 64.0098 279.745 64.2909 279.414C66.1344 277.218 68.5502 276.191 71.4664 276.365C74.8541 276.568 78.3304 278.378 81.125 279.834C81.6232 280.093 82.0995 280.341 82.5546 280.568C85.0111 281.799 88.1696 283.009 90.6601 282.428C91.8688 282.146 92.7472 281.397 93.7632 280.531C94.7272 279.706 95.8214 278.777 97.3122 278.186C98.512 277.712 99.5923 277.543 100.547 277.396C101.871 277.188 102.826 277.039 103.801 276.149C104.33 275.667 104.865 274.972 105.434 274.236C106.958 272.262 108.85 269.807 112.168 269.516C114.73 269.292 117.004 270.299 119.15 271.264C121.203 272.186 123.176 273.024 125.058 272.724C125.271 272.692 125.435 272.661 125.561 272.635C125.56 272.579 125.557 272.518 125.556 272.455C125.552 272.109 125.547 271.7 125.569 271.215C125.723 267.928 125.94 264.641 126.185 261.361C126.446 257.861 126.09 254.205 125.742 250.674C125.612 249.355 125.481 248.036 125.382 246.719L125.013 241.736C124.618 236.352 124.202 230.794 123.645 225.306C123.6 225.299 123.551 225.296 123.506 225.291C121.58 225.021 119.659 224.221 117.799 223.448C116.983 223.107 116.185 222.775 115.424 222.511C114.835 222.308 114.213 222.149 113.59 221.986C112.456 221.694 111.284 221.391 110.175 220.842C108.203 219.864 107.334 218.243 106.637 216.94C106.434 216.564 106.246 216.209 106.043 215.897C105.557 216.653 105.103 217.755 104.814 218.454C104.645 218.868 104.487 219.245 104.342 219.557C102.644 223.166 100.687 227.027 97.896 230.795C95.5364 233.974 91.3532 236.905 86.976 238.444C85.9429 238.804 84.8546 238.957 83.7478 238.891C81.6465 238.765 79.7777 237.915 77.9704 237.093C76.6324 236.486 75.3645 235.909 74.134 235.69C70.8315 235.079 65.9628 236.324 63.271 237.633C62.8024 237.859 62.4539 238.112 62.1313 238.344C61.3077 238.93 60.3713 239.595 58.6344 239.668C56.2335 239.767 53.6376 238.983 51.43 238.299L50.7684 238.096C50.0515 237.878 49.3215 237.578 48.5828 237.272C47.3868 236.776 46.2566 236.309 45.1341 236.242L45.1319 236.242C43.9901 236.196 43.0337 236.781 41.9229 237.46C40.9127 238.077 39.767 238.776 38.357 239.033C36.592 239.35 34.6296 238.86 32.9013 238.337C32.1068 238.096 31.3694 237.92 30.6592 237.814C30.2882 242.854 29.9545 247.984 29.8646 253.031C29.8469 254.157 30.0026 255.285 30.1678 256.48C30.3242 257.593 30.4808 258.743 30.5013 259.945C30.5137 260.718 30.4033 261.434 30.2987 262.129C30.2022 262.763 30.1101 263.363 30.1398 263.884C30.2045 265.025 30.5058 266.128 30.8257 267.296C31.2921 268.992 31.7752 270.749 31.595 272.822ZM17.5048 242.586L17.701 240.926C18.7863 240.937 19.2607 240.651 20.6512 239.816C21.5205 239.293 22.2515 238.56 23.0254 237.787C23.8403 236.969 24.6791 236.128 25.7611 235.441C27.1054 234.587 28.5467 234.22 30.1676 234.317C31.4831 234.395 32.7025 234.765 33.8798 235.12C35.3073 235.551 36.6706 235.924 37.7481 235.726C38.5407 235.583 39.2892 235.122 40.1565 234.595C41.5362 233.753 43.0982 232.798 45.4132 232.891C47.0207 232.987 48.5354 233.617 49.8721 234.17C50.5096 234.435 51.1362 234.695 51.7535 234.884L52.4261 235.09C54.377 235.696 56.5814 236.396 58.4924 236.313C59.2265 236.283 59.523 236.071 60.1745 235.612C60.5864 235.318 61.1016 234.953 61.7885 234.617C64.8585 233.124 70.6324 231.662 74.728 232.385C76.3798 232.681 77.8999 233.371 79.3694 234.041C81.69 235.095 83.8772 235.971 85.8539 235.279C89.5683 233.972 93.2303 231.432 95.1809 228.801C97.7982 225.27 99.6629 221.59 101.286 218.135C101.413 217.869 101.547 217.543 101.693 217.183C102.439 215.369 103.461 212.882 105.468 212.024C106 211.797 106.605 211.854 107.084 212.176C108.372 213.048 109.031 214.279 109.612 215.367C110.202 216.471 110.666 217.34 111.67 217.838C112.465 218.229 113.421 218.477 114.433 218.739C115.147 218.921 115.859 219.11 116.53 219.343C117.351 219.627 118.215 219.987 119.095 220.353C120.756 221.045 122.473 221.759 123.973 221.969C126.236 222.287 129.159 222.455 131.706 222.407C132.793 222.389 133.277 221.978 134.075 221.294C134.723 220.74 135.53 220.05 136.731 219.603C138.063 219.105 139.531 219.079 140.947 219.056C142.276 219.034 143.647 219.008 144.494 218.554C145.242 218.149 145.705 217.407 146.243 216.55C147.165 215.07 148.431 213.045 151.603 213.234C152.514 213.295 153.358 213.427 154.147 213.714C154.032 210.769 154.005 207.829 153.977 204.954C153.956 202.622 153.933 200.291 153.868 197.959C153.843 197.12 153.744 196.335 153.648 195.558C153.504 194.393 153.357 193.192 153.412 191.819C153.467 190.451 153.37 189.096 153.264 187.664C153.139 185.955 153.012 184.19 153.158 182.358C153.577 177.193 152.64 172.163 151.652 166.84C151.346 165.201 151.043 163.566 150.778 161.927C149.719 155.305 150.238 148.608 150.742 142.135C151.041 138.31 151.347 134.355 151.313 130.519C151.223 120.935 151.819 111.266 152.394 101.918L152.688 97.0999C152.777 95.608 152.887 94.1128 152.997 92.6153C153.27 88.8694 153.556 84.9985 153.481 81.234C153.4 77.2334 153.171 73.1567 152.949 69.215C152.815 66.8523 152.684 64.4896 152.577 62.124C152.495 60.2626 152.346 58.3883 152.196 56.5139C151.886 52.6276 151.565 48.6127 151.847 44.6406C151.976 42.857 151.082 40.442 149.723 38.8994C149.031 38.1128 147.786 37.154 146.395 37.4345C144.143 37.8723 143.051 38.9833 141.254 41.2441C140.055 42.7483 138.541 43.4256 136.624 43.311C136.043 43.2762 135.443 43.173 134.814 43.0614C133.873 42.8952 132.804 42.7325 131.934 42.8781C130.542 43.1136 129.295 43.6945 127.969 44.3089C126.076 45.1902 124.115 46.1034 121.56 46.1168L120.929 46.1172C120.546 46.1145 120.068 46.1129 119.96 46.1514C119.918 46.1713 119.749 46.2869 119.234 46.9498C118.963 47.2995 118.735 47.7258 118.493 48.1603C117.764 49.4658 116.767 51.2515 114.686 51.841C113.331 52.2269 112.081 51.8132 111.271 51.4461C111.004 51.3268 110.724 51.1889 110.375 51.1096C109.706 50.9574 109.437 51.0356 108.675 51.4278C108.191 51.6773 107.592 51.9849 106.783 52.1767C106.643 52.211 106.503 52.2251 106.361 52.2211L105.983 52.2075C104.926 52.1443 103.891 51.8939 102.907 51.467C101.468 51.1205 99.9992 51.0013 98.5278 51.1177C98.1873 51.2365 98.0201 51.433 97.661 51.9009C97.2726 52.4052 96.7377 53.0983 95.786 53.5667C95.0037 53.951 94.2228 54.1265 93.4707 54.0816C91.0597 53.9353 89.7894 51.7425 88.8623 50.1404C88.6419 49.7569 88.4274 49.3871 88.214 49.0758C87.8239 48.516 87.415 47.8922 86.9897 47.2427C85.7161 45.2944 84.273 43.0891 82.8304 41.894C81.9247 41.1395 81.6063 41.19 80.8822 41.2433C76.711 41.5597 72.7541 44.6612 70.4419 47.4614C69.4948 48.6058 68.6455 49.8098 67.7425 51.0848C66.8685 52.3256 65.9606 53.6069 64.9621 54.8201L64.1854 55.7905C62.6042 57.7814 60.6379 60.2589 58.7237 61.3387C57.136 62.2315 55.0503 61.6579 53.4952 60.988C53.1568 60.8444 52.8185 60.6984 52.4853 60.582L50.7 59.9567C48.0544 59.0242 45.5566 58.1431 42.8844 57.4289C42.0572 57.2089 41.1918 56.8743 40.2737 56.5164C38.816 55.9511 37.3076 55.3671 36.0616 55.2927C35.1861 55.2403 34.7673 55.4622 34.5979 55.5823C33.7197 56.2908 33.0589 57.1313 32.6449 57.9887C32.2553 59.117 31.8991 60.2518 31.5714 61.3995C31.4542 61.8145 31.1807 62.1685 30.8048 62.3885C30.1579 62.7719 29.4471 62.9404 28.7017 62.8959C27.3637 62.8159 26.2681 62.0725 25.3675 61.4597C22.5466 59.5402 19.7843 56.9395 17.966 55.0956C17.7895 54.9189 17.5955 54.6986 17.3911 54.4619C17.2794 54.3317 17.1233 54.154 16.9651 53.974C16.8021 55.9464 17.1173 58.0619 17.4471 60.2725C17.7504 62.3221 18.0675 64.4422 17.9862 66.5183C17.8899 68.9975 17.9234 71.5271 17.9573 73.976C17.9827 75.6992 18.0033 77.429 17.985 79.1676C17.9625 81.2404 18.1719 83.2396 18.397 85.3541C18.5627 86.9174 18.7257 88.4873 18.7989 90.09C19.2849 101.107 17.5874 112.019 15.9473 122.572C14.7335 130.365 13.4791 138.426 13.1378 146.397C12.9854 149.928 13.3468 153.379 13.7319 157.039C13.9831 159.433 14.243 161.907 14.3404 164.386C14.6035 171.029 14.7004 177.89 14.7708 183.798C14.8196 187.77 14.5177 191.765 14.2239 195.627L14.0506 197.96C13.7638 201.891 14.0905 205.397 14.5443 209.566C14.839 212.25 14.9738 214.97 15.1028 217.6C15.2452 220.457 15.391 223.408 15.7431 226.262C15.849 227.129 16.0061 227.968 16.1589 228.804C16.4754 230.52 16.7997 232.294 16.7289 234.232C16.7147 234.622 16.6804 235.082 16.6389 235.587C16.5226 237.082 16.3067 239.866 17.049 240.714C17.108 240.782 17.2219 240.913 17.5991 240.935L17.5048 242.586Z" fill="#418DAB"/>
<path d="M178.591 70.1821C179.421 69.978 180.23 69.7166 181.037 69.4483C179.26 74.3008 177.726 79.3407 178.281 84.079C178.76 88.1729 180.839 93 182.507 96.6891C186.035 104.492 190.431 112.059 194.32 119.702C195.837 122.681 196.775 124.661 199.418 127.149C203.455 130.953 212.144 136.851 218.113 135.939C222.319 135.295 226.004 132.182 230.221 131.962C235.096 131.71 237.575 135.592 240.572 138.588C244.382 142.398 248.475 144.818 254.106 144.057C257.095 143.652 259.92 141.931 262.967 141.875C268.326 141.775 269.464 146.782 273.898 148.248C276.748 149.19 279.238 148.096 282.087 147.725C291.034 146.567 297.224 150.039 305.08 153.367C312.903 156.68 318.544 155.365 326.068 152.935C331.944 151.037 338.674 152.101 344.745 152.568C357.557 153.551 366.997 159.521 377.737 165.59C381.213 167.556 383.134 168.892 387.021 168.46C391.578 167.953 396.966 166.196 401.26 164.698C406.685 162.806 411.446 159.905 417.347 159.773C420.158 159.71 421.405 160.748 423.949 158.933C425.747 157.651 425.993 156.889 428.044 155.784C430.384 154.527 433.018 152.826 435.653 152.304C444.525 150.542 453.363 155.261 462.188 155.232C470.086 155.206 476.418 153.184 484.146 156.396C491.913 159.621 495.179 162.227 502.33 156.048C507.383 151.681 511.211 146.482 515.135 141.147C518.31 136.832 519.834 136.326 524.886 134.843C533.671 132.268 539.053 136.588 547.538 139.025C552.245 140.377 556.917 141.813 561.622 143.207C566.3 144.591 574.953 147.423 579.936 145.445C584.884 143.48 586.594 137.059 592.273 135.952C595.968 135.233 602.236 136.175 605.858 136.666C613.471 137.693 619.401 142.14 627.359 142.55C634.906 142.938 641.794 146.915 649.257 146.815C654.38 146.747 658.82 144.395 663.648 143.145C671.841 141.027 682.143 141.972 689.838 145.198C696.133 147.837 698.731 150.473 704.553 145.195C705.67 144.182 706.576 143.042 707.404 141.855C707.184 144.214 707.004 146.637 706.86 149.151C706.538 154.872 706.206 160.588 705.857 166.307C705.37 174.316 705.388 181.326 705.923 189.032C705.982 189.858 706.055 190.668 706.124 191.469C706.321 193.645 706.502 195.7 706.351 197.846C706.292 198.698 706.295 199.655 706.302 200.638C706.309 201.907 706.319 203.21 706.17 204.314C705.846 204.086 705.498 203.764 705.25 203.536L704.891 203.207C704.51 202.866 704.131 202.509 703.744 202.151C701.954 200.477 700.102 198.748 697.813 197.803C696.335 197.196 694.695 196.856 692.645 196.733C691.375 196.657 690.074 196.671 688.777 196.691C686.613 196.716 684.352 196.695 682.707 196.33C682.138 196.202 681.6 196.035 681.076 195.873C679.138 195.277 676.883 194.857 674.803 195.723C671.43 197.124 669.941 200.034 668.499 202.848L668.14 203.545C667.794 204.214 666.915 205.764 666.208 205.722C665.673 205.69 664.797 205.128 663.951 204.581C662.738 203.799 661.228 202.824 659.406 202.48C657.486 202.114 655.701 202.42 654.032 202.715C652.237 203.035 650.548 203.257 649.074 202.729C646.69 201.868 644.692 200.094 642.578 198.219C639.581 195.559 636.478 192.806 631.977 192.458C631.968 192.458 631.758 192.443 631.749 192.443C631.122 192.405 630.495 192.413 629.871 192.418C628.823 192.429 627.742 192.416 626.928 192.204C625.537 191.845 624.359 190.892 623.115 189.886C622.1 189.064 621.051 188.218 619.787 187.584C618.109 186.745 616.248 186.56 613.666 187.045C611.273 187.501 609.131 187.454 607.169 187.337L606.141 187.269C605.632 187.232 605.116 187.167 604.592 187.102C603.926 187.02 603.253 186.939 602.584 186.899C601.131 186.812 599.956 186.942 598.885 187.304C597.399 187.815 595.93 188.721 594.507 189.599C593.988 189.921 593.482 190.236 593 190.508C592.47 190.811 591.977 191.107 591.505 191.391C589.346 192.69 587.92 193.547 585.402 193.538C582.397 193.531 578.992 193.357 576.334 192.998C575.045 192.825 573.786 192.215 572.452 191.57C570.852 190.794 569.203 189.995 567.328 189.883C566.163 189.813 565.022 190.026 563.936 190.518C561.38 191.667 559.512 190.352 557.089 188.508C556.087 187.748 555.053 186.959 553.855 186.265C552.098 185.249 550.697 184.756 549.307 184.673C547.711 184.578 546.197 185.062 544.801 186.108C543.485 187.095 542.644 188.489 541.831 189.836C541.161 190.95 540.528 192.001 539.768 192.544C538.264 193.621 535.443 192.525 533.036 191.461C531.995 190.999 531.014 190.566 530.088 190.302C526.884 189.396 523.323 190.245 520.138 192.693C519.24 193.382 518.47 194.131 517.724 194.854C516.134 196.397 514.875 197.62 513.06 197.718C511.297 197.787 510.216 196.45 508.585 194.083C507.069 191.885 505.35 189.391 502.251 189.116L502.246 189.116C499.768 188.968 498.116 190.665 496.789 192.024C496.412 192.413 496.047 192.79 495.68 193.099C494.235 194.307 492.991 194.426 490.936 194.624L490.653 194.652C488.235 194.892 485.956 194.798 483.542 194.703L481.833 194.639C477.199 194.488 474.519 196.546 471.493 199.252C468.437 201.985 465.554 203.999 461.419 204.957C460.496 205.169 459.584 205.31 458.697 205.45C455.423 205.962 452.034 206.495 449.211 210.149C447.47 212.405 446.624 214.875 445.8 217.266C445.47 218.229 445.134 219.208 444.733 220.188C443.373 223.532 442.698 224.648 442.415 225.019C442.253 224.749 442.045 224.339 441.87 223.99C441.496 223.245 441.219 222.593 440.956 221.98C440.122 220.033 439.335 218.195 437.115 216.504C435.907 215.581 433.441 214.011 430.475 213.834C429.391 213.769 428.351 213.902 427.39 214.233C425.531 214.869 424.042 216.069 422.601 217.231C421.228 218.336 419.931 219.379 418.487 219.793C416.326 220.407 415.391 220.216 413.156 218.399C408.668 214.757 405.497 212.659 399.615 213.394C398.097 213.58 396.588 213.945 395.13 214.298C392.604 214.908 390.248 215.486 387.975 215.154C386.818 214.986 385.692 214.594 384.5 214.177C383.571 213.852 382.609 213.516 381.585 213.273C380.223 212.949 378.896 212.798 377.614 212.654C375.918 212.463 374.317 212.284 372.754 211.719C370.868 211.039 368.948 210.176 367.09 209.34C366.344 209.004 365.598 208.667 364.851 208.342C363.405 207.71 362.097 207.462 360.836 207.22C360.241 207.106 359.635 206.991 358.996 206.83C358.51 206.706 358.046 206.555 357.588 206.411C356.344 206.011 355.025 205.604 353.478 205.64C349.788 205.736 347.217 208.384 345.098 210.859C344.659 211.371 344.273 211.988 343.899 212.588C343.454 213.297 342.898 214.182 342.477 214.453C341.474 215.1 338.756 213.899 338.061 213.541C336.859 212.925 335.677 212.276 334.501 211.631C329.948 209.13 325.241 206.541 319.817 206.216C318.441 206.134 317.047 206.199 315.678 206.416C313.383 206.777 311.725 207.825 310.123 208.843C309.521 209.224 308.905 209.616 308.233 209.98C307.844 210.188 307.293 210.463 306.963 210.443C306.77 210.431 306.522 210.293 306.224 210.035C305.654 209.541 305.101 207.642 304.737 206.386C304.4 205.23 304.082 204.138 303.641 203.31C301.261 198.84 297.58 196.077 293.278 195.532C290.926 195.23 288.478 195.245 286.129 195.264C282.805 195.288 279.331 195.197 276.841 194.534C274.617 193.939 272.426 192.402 270.77 191.132C270.08 190.603 269.477 190.096 268.92 189.627C266.663 187.728 264.752 186.114 260.873 186.183C258.358 186.226 255.978 186.77 253.678 187.297C252.394 187.591 251.103 187.887 249.793 188.091C246.605 188.585 244.16 190.7 241.801 192.75C239.47 194.772 237.265 196.681 234.652 196.745C233.494 196.772 232.802 196.228 231.364 194.986C230.764 194.465 230.249 194.005 229.753 193.556C227.579 191.599 225.526 189.75 222.379 188.585C219.93 187.678 217.768 187.506 215.481 187.32C214.981 187.281 214.474 187.24 213.95 187.188C213.52 187.149 212.858 186.912 212.216 186.683C210.555 186.085 208.421 185.574 206.948 186.361C205.809 186.973 205.301 188.173 204.894 189.136C204.733 189.522 204.461 190.163 204.294 190.306C203.766 190.622 202.077 190.205 200.789 189.775C200.34 189.627 199.921 189.49 199.55 189.389L198.575 189.127C194.666 188.074 191.661 187.645 187.811 189.413C186.808 189.874 185.772 190.463 184.769 191.036C182.707 192.21 180.575 193.425 178.703 193.578C174.447 193.925 170.067 192.761 165.187 193.807C162.421 194.398 159.752 195.55 157.142 196.846C157.096 196.271 157.058 195.69 156.988 195.131C156.856 194.057 156.73 193.041 156.775 191.944C156.839 190.383 156.729 188.871 156.623 187.405C156.501 185.752 156.39 184.188 156.515 182.613C156.97 177.001 155.948 171.517 154.963 166.212C154.663 164.6 154.363 162.99 154.105 161.381C153.108 155.151 153.61 148.66 154.101 142.379C154.403 138.482 154.716 134.451 154.68 130.469C154.592 121.004 155.184 111.396 155.755 102.107L156.05 97.2831C156.139 95.8045 156.247 94.325 156.356 92.8454C156.634 89.0235 156.926 85.0721 156.85 81.1504C156.766 77.0868 156.534 72.9807 156.312 69.0099C156.31 68.9671 156.308 68.9243 156.304 68.8792C163.584 71.5411 171.166 72.019 178.591 70.1821Z" fill="#87D4F6"/>
<path d="M211.934 89.5091C217.093 94.4484 220.484 101.43 224.842 107.099C228.929 112.414 233.861 117.133 237.553 122.723C238.344 123.92 236.59 125.373 235.493 124.544C229.593 120.083 225.174 113.613 220.909 107.651C217.111 102.34 212.423 96.45 210.871 90.0404C210.719 89.405 211.517 89.107 211.934 89.5091Z" fill="#87D4F6"/>
<path d="M213.719 109.138C215.938 110.726 217.673 112.989 219.507 114.991C221.78 117.472 223.767 120.087 225.723 122.82C226.495 123.896 225.146 125.131 224.172 124.19C222.002 122.092 219.906 120 217.979 117.674C216.054 115.348 213.776 113.005 212.397 110.307C211.989 109.509 212.963 108.597 213.719 109.138Z" fill="#87D4F6"/>
<path d="M690.115 122.661C693.886 125.95 697.114 130.339 699.657 134.635C700.797 136.559 697.989 138.23 696.546 136.743C693.074 133.168 689.721 128.885 687.551 124.398C686.727 122.694 688.839 121.548 690.115 122.661Z" fill="#87D4F6"/>
<path d="M668.451 110.962C677.51 117.485 683.929 126.837 688.222 137.027C689.006 138.885 686.244 140.314 685.402 138.452C680.949 128.594 674.304 120.587 666.596 113.084C665.432 111.948 667.151 110.024 668.451 110.962Z" fill="#87D4F6"/>
<path d="M555.496 120.025C555.774 119.75 556.37 119.754 556.607 120.091C556.686 120.208 556.769 120.321 556.855 120.434C556.986 120.612 557.024 120.837 556.907 121.032C557.239 121.698 558.336 123.398 558.477 123.669C559.104 124.867 559.634 126.104 560.156 127.35C561.178 129.777 562.094 132.108 562.153 134.763C562.178 135.828 560.761 135.894 560.294 135.148C558.511 132.302 557.744 128.892 556.556 125.772C555.968 124.228 554.016 121.488 555.496 120.025Z" fill="#87D4F6"/>
<path d="M445.558 131.871C446.832 133.166 447.767 134.789 448.781 136.286C449.336 137.105 449.891 137.924 450.448 138.743C451.245 139.919 451.541 140.783 452.02 142.074C452.428 143.171 451.142 144.205 450.261 143.266C449.537 142.491 449.087 142.255 448.534 141.36C447.889 140.316 447.312 139.226 446.712 138.156C445.712 136.374 444.584 134.632 443.918 132.696C443.59 131.731 444.959 131.26 445.558 131.871Z" fill="#87D4F6"/>
<path d="M426.258 120.005C432.027 126.043 438.732 133.436 441.816 141.288C442.256 142.408 440.878 143.515 440.001 142.52C437.129 139.26 435.011 135.42 432.524 131.873C430.02 128.302 427.266 124.925 424.548 121.519C423.636 120.367 425.238 118.936 426.258 120.005Z" fill="#87D4F6"/>
<path d="M339.521 134.337C341 136.661 343.28 139.224 343.451 142.063C343.506 142.991 342.298 143.406 341.621 142.968C340.459 142.216 339.849 141.109 339.157 139.95C338.334 138.567 337.64 137.089 336.887 135.668C335.982 133.957 338.522 132.769 339.521 134.337Z" fill="#87D4F6"/>
<path d="M318.629 114.556C322.656 122.64 326.971 130.626 330.071 139.111C330.582 140.51 328.754 141.503 327.971 140.17C323.392 132.379 319.983 123.973 316.308 115.726C315.631 114.206 317.878 113.052 318.629 114.556Z" fill="#87D4F6"/>
<path d="M312.516 129.87C314.247 132.414 316.065 134.913 317.992 137.313C318.946 138.502 317.474 140.432 316.159 139.408C313.358 137.227 311.231 134.478 310.039 131.121C309.44 129.43 311.505 128.384 312.516 129.87Z" fill="#87D4F6"/>
<path d="M608.637 145.144C613.075 151.295 617.786 157.617 620.947 164.554C621.537 165.849 619.764 167.2 618.815 166C614.078 159.997 610.582 152.931 607.138 146.161C606.679 145.26 608.016 144.288 608.637 145.144Z" fill="#ADDFF8"/>
<path d="M601.591 147.23C603.703 150.001 605.671 152.814 607.263 155.913C607.675 156.717 606.517 157.541 605.939 156.81C603.768 154.079 602.006 151.136 600.353 148.07C599.949 147.325 601.066 146.541 601.591 147.23Z" fill="#ADDFF8"/>
<path d="M368.167 170.504C369.126 172.851 369.903 175.241 371.01 177.532C372.036 179.659 373.462 181.616 374.011 183.941C374.25 184.954 373.034 185.77 372.177 185.178C368.298 182.488 366.091 175.916 365.569 171.418C365.404 169.964 367.532 168.951 368.167 170.504Z" fill="#ADDFF8"/>
<path d="M353.306 164.137C355.535 167.595 357.186 171.442 359.093 175.085C361.008 178.748 363.13 182.292 364.771 186.089C365.256 187.209 363.68 188.473 362.9 187.358C358.28 180.778 354.02 172.395 351.861 164.643C351.609 163.741 352.865 163.45 353.306 164.137Z" fill="#ADDFF8"/>
<path d="M350.567 180.569C352.738 183.224 354.37 186.828 355.544 190.023C355.98 191.207 354.381 192.638 353.527 191.391C351.534 188.477 349.47 185.016 348.532 181.59C348.226 180.458 349.834 179.672 350.567 180.569Z" fill="#ADDFF8"/>
<path d="M180.225 149.114C180.838 149.066 181.53 149.226 181.798 149.864C181.847 149.983 181.898 150.103 181.948 150.223C182.177 150.764 182.006 151.326 181.666 151.733C182.054 153.383 183.313 155.492 183.845 156.741C184.679 158.694 185.654 160.584 186.648 162.46C188.628 166.201 191.171 169.648 192.87 173.528C193.508 174.987 191.794 175.991 190.681 175.011C185.811 170.731 183.004 164.249 180.634 158.363C179.932 156.619 176.173 149.431 180.225 149.114Z" fill="#ADDFF8"/>
<path d="M176.721 167.635C179.155 170.757 182.146 173.522 184.264 176.865C184.962 177.969 183.414 179.223 182.409 178.506C179.09 176.136 176.82 172.416 174.704 169.003C173.968 167.816 175.867 166.543 176.721 167.635Z" fill="#ADDFF8"/>
<path d="M163.06 79.4024C165.272 82.1206 167.032 85.2047 168.655 88.2917C169.352 89.6219 167.345 91.062 166.436 89.7955C164.393 86.9528 162.4 84.0299 160.956 80.8278C160.377 79.5451 162.107 78.2321 163.06 79.4024Z" fill="#ADDFF8"/>
<path d="M14.4558 167.733C14.5829 167.831 14.6863 167.949 14.8156 168.047C17.3642 169.961 20.3246 171.469 22.5969 173.749C23.8133 174.996 24.7948 176.406 25.5456 177.979C27.4072 180.607 28.6202 181.119 31.6735 181.111C34.8349 181.105 38.0796 181.438 41.1557 182.178C43.9542 182.853 46.2814 183.609 48.4805 185.492C51.1448 187.77 53.5099 189.891 56.5944 191.622C58.2947 192.577 60.6667 194.243 62.6199 194.773C65.1895 195.469 68.1532 195.489 70.7899 195.968C72.3468 196.382 73.9275 196.51 75.532 196.353C78.4472 196.055 81.0903 194.655 83.8725 193.868C85.9305 193.286 88.2288 193.205 89.9658 191.812C91.8257 190.323 93.6339 187.775 95.2564 185.998C96.3853 184.94 97.0625 183.636 97.2882 182.085C98.2194 179.207 99.4895 176.728 100.634 173.948C101.627 171.529 101.952 169.041 102.502 166.51C103.033 164.068 103.243 162.177 105.951 162.294C109.001 162.425 112.128 163.02 115.174 162.729C118.214 162.439 120.292 161.645 123.357 161.849C128.245 162.174 131.719 162.734 134.961 158.362C138.275 153.893 139.099 149.036 143.924 145.687C147.617 143.125 149.241 141.291 150.813 136.842C150.946 136.464 151.053 136.079 151.17 135.698C151.059 137.851 150.908 140.004 150.741 142.122C150.237 148.595 149.717 155.293 150.777 161.914C151.039 163.552 151.345 165.187 151.65 166.826C152.639 172.149 153.575 177.179 153.156 182.344C153.008 184.176 153.137 185.944 153.263 187.651C153.369 189.082 153.466 190.435 153.411 191.806C153.356 193.178 153.502 194.381 153.647 195.544C153.745 196.324 153.842 197.107 153.866 197.945C153.934 200.277 153.955 202.609 153.975 204.94C154.004 207.815 154.031 210.757 154.146 213.7C153.358 213.415 152.515 213.282 151.601 213.221C148.429 213.031 147.164 215.059 146.242 216.537C145.704 217.394 145.243 218.136 144.493 218.54C143.648 218.997 142.274 219.02 140.946 219.042C139.527 219.067 138.061 219.094 136.729 219.589C135.531 220.036 134.724 220.729 134.074 221.28C133.276 221.962 132.794 222.373 131.704 222.393C129.158 222.441 126.232 222.273 123.971 221.956C122.472 221.745 120.755 221.032 119.093 220.34C118.214 219.973 117.35 219.616 116.529 219.329C115.856 219.096 115.146 218.91 114.431 218.726C113.42 218.463 112.463 218.215 111.669 217.824C110.665 217.326 110.198 216.457 109.611 215.353C109.029 214.266 108.371 213.036 107.082 212.163C106.604 211.838 105.999 211.781 105.467 212.01C103.46 212.871 102.437 215.355 101.691 217.17C101.544 217.527 101.411 217.853 101.285 218.122C99.6614 221.576 97.7991 225.256 95.1796 228.788C93.2289 231.419 89.5669 233.959 85.8525 235.265C83.8758 235.958 81.6864 235.082 79.368 234.027C77.8962 233.358 76.3784 232.668 74.7267 232.371C70.6311 231.648 64.8593 233.111 61.7871 234.604C61.0979 234.94 60.5826 235.306 60.1731 235.598C59.5237 236.06 59.2273 236.269 58.491 236.299C56.58 236.382 54.3756 235.683 52.4246 235.077L51.7521 234.871C51.1369 234.683 50.5082 234.421 49.8707 234.156C48.5362 233.603 47.0192 232.974 45.4118 232.878C43.0967 232.786 41.5347 233.739 40.1551 234.581C39.2876 235.111 38.5393 235.569 37.7467 235.713C36.6669 235.911 35.3058 235.537 33.8784 235.106C32.7011 234.751 31.4817 234.382 30.1661 234.303C28.5453 234.206 27.1039 234.574 25.7597 235.427C24.6777 236.114 23.8389 236.956 23.024 237.773C22.2501 238.546 21.5191 239.279 20.6497 239.802C19.2593 240.637 18.7848 240.923 17.6996 240.912L17.5034 242.573L17.6029 240.909C17.2257 240.886 17.1119 240.756 17.0529 240.687C16.3083 239.839 16.5265 237.055 16.6429 235.56C16.6844 235.053 16.7187 234.593 16.7328 234.205C16.8036 232.268 16.4771 230.493 16.1628 228.777C16.01 227.942 15.8529 227.102 15.747 226.236C15.3971 223.382 15.2491 220.43 15.1067 217.573C14.9778 214.941 14.8429 212.224 14.5482 209.539C14.0945 205.368 13.7677 201.865 14.0545 197.933L14.2278 195.6C14.5195 191.736 14.8236 187.741 14.7747 183.771C14.712 178.865 14.6305 173.293 14.4558 167.733Z" fill="#EFE5DD"/>
<path d="M33.7304 37.3389C36.4746 37.8666 38.9604 38.8345 41.6865 39.3633C44.8647 39.9798 47.6934 39.1679 50.8525 39.2736C57.9802 39.5133 65.5001 35.7919 70.4879 30.7474C72.1113 29.1048 75.386 25.3923 78.1215 25.3111C79.9293 25.2575 82.1748 26.8172 83.5073 27.8935C86.0801 29.9688 89.2867 33.164 92.4619 34.2068C93.7677 34.6372 94.8771 34.6609 96.2019 35.225C98.3576 36.2495 100.628 36.8992 103.016 37.1721C105.898 37.5374 109.933 37.7225 112.551 35.8788C112.573 36.1473 112.586 36.4219 112.609 36.6904C112.845 39.9281 112.881 43.2884 112.915 46.5364C112.921 47.1855 112.931 47.8416 112.939 48.4953C112.856 48.4589 112.773 48.4225 112.661 48.3731C112.259 48.192 111.763 47.9671 111.13 47.8215C109.147 47.373 108.019 47.97 107.126 48.4285C106.805 48.5934 106.52 48.7379 106.198 48.8399L106.185 48.8391C105.484 48.7972 104.821 48.6296 104.16 48.3298C104.068 48.2861 103.971 48.2534 103.873 48.2296C101.962 47.7494 100.005 47.592 98.052 47.7716C97.9545 47.7815 97.8589 47.7983 97.7628 47.8217C96.2169 48.2434 95.4769 49.2026 94.9861 49.8377C94.693 50.2175 94.5275 50.4231 94.2885 50.539C94.04 50.6633 93.827 50.7224 93.6698 50.713C93.0704 50.6772 92.2944 49.3356 91.782 48.4475C91.5103 47.98 91.2489 47.5289 90.9832 47.1494C90.6097 46.613 90.2218 46.0174 89.8152 45.3937C88.4092 43.2467 86.8198 40.8127 84.9864 39.2956C83.9819 38.4611 82.8144 37.7157 80.6195 37.8741C76.1813 38.2104 71.4011 40.9889 67.8334 45.3056C66.8062 46.5462 65.8783 47.8601 64.9824 49.1287C64.1037 50.3737 63.2717 51.5518 62.351 52.6708L61.5379 53.684C60.2858 55.2569 58.3975 57.638 57.0568 58.3951C56.7699 58.5576 55.7766 58.2894 54.8253 57.8846C54.4122 57.7096 54.0014 57.5324 53.5932 57.389L51.8166 56.7687C49.107 55.8122 46.5496 54.9118 43.751 54.1654C43.0657 53.983 42.2998 53.6791 41.4917 53.3659C39.8709 52.7392 38.0345 52.0256 36.2588 51.9195C34.8107 51.833 33.5609 52.1623 32.5438 52.8962C31.2633 53.9263 30.3079 55.1353 29.6185 56.5308C29.8463 50.6451 29.8636 44.8142 29.3411 38.7804C29.2782 38.0605 29.1744 37.3472 29.0888 36.6305C30.6366 36.8195 32.1778 37.0418 33.7304 37.3389Z" fill="#EFE5DD"/>
<path d="M32.8992 238.335C34.6274 238.86 36.5898 239.35 38.3549 239.031C39.7649 238.774 40.9106 238.075 41.9208 237.457C43.0316 236.778 43.988 236.194 45.1298 236.239L45.1321 236.24C46.2546 236.307 47.3847 236.774 48.5807 237.27C49.3195 237.574 50.0496 237.874 50.7664 238.094L51.4279 238.297C53.6355 238.981 56.2315 239.765 58.6323 239.666C60.3693 239.593 61.3033 238.93 62.1293 238.342C62.4539 238.112 62.8002 237.859 63.269 237.631C65.9585 236.322 70.8294 235.077 74.1319 235.688C75.3647 235.907 76.6303 236.483 77.9683 237.091C79.7757 237.913 81.6467 238.763 83.7457 238.889C84.8525 238.955 85.9408 238.802 86.9739 238.442C91.3489 236.903 95.5344 233.972 97.894 230.793C100.688 227.025 102.642 223.166 104.34 219.555C104.485 219.243 104.64 218.868 104.812 218.452C105.099 217.753 105.552 216.651 106.041 215.894C106.243 216.207 106.432 216.562 106.635 216.938C107.332 218.241 108.199 219.862 110.173 220.84C111.282 221.389 112.454 221.69 113.588 221.984C114.211 222.147 114.833 222.303 115.422 222.509C116.183 222.775 116.981 223.107 117.797 223.446C119.657 224.219 121.578 225.019 123.504 225.289C123.549 225.294 123.598 225.299 123.643 225.304C124.198 230.792 124.616 236.35 125.011 241.734L125.38 246.717C125.479 248.034 125.61 249.353 125.74 250.672C125.87 251.977 125.989 253.302 126.088 254.625C122.699 251.419 119.053 248.184 114.369 248.086C110.748 248.009 106.248 245.729 102.749 247.275C100.504 248.265 101.421 249.815 100.41 251.652C99.1716 253.899 96.8015 253.822 94.5834 253.728C90.2058 253.54 85.3788 252.239 81.1135 253.715C79.6968 254.311 78.3203 254.987 76.9839 255.747C73.7419 257.028 70.8368 255.085 67.8588 253.947C63.744 252.376 58.2832 250.407 53.7486 251.451C50.957 252.095 48.4515 254.057 46.0517 255.496C44.5702 256.384 42.4582 257.154 41.1022 258.28C37.4418 261.321 37.1902 266.512 35.1861 270.489C34.3659 272.112 33.2434 273.854 31.9523 275.476C31.6053 274.535 31.5434 273.497 31.6022 272.816C31.7801 270.743 31.2992 268.988 30.8307 267.29C30.5085 266.121 30.2071 265.019 30.1447 263.877C30.1172 263.357 30.2072 262.756 30.3037 262.122C30.4083 261.428 30.5209 260.712 30.5062 259.939C30.4857 258.737 30.3269 257.587 30.1727 256.473C30.0075 255.278 29.8519 254.151 29.8696 253.025C29.9595 247.978 30.2931 242.848 30.6641 237.808C31.3672 237.92 32.1048 238.094 32.8992 238.335Z" fill="#EFE5DD"/>
<path d="M121.532 126.907C122.086 127.744 122.642 128.583 123.198 129.42C123.34 129.608 123.254 129.836 123.092 129.941C126.181 135.908 129.554 142.427 130.823 148.779C131.01 149.72 129.657 150.572 129.034 149.68C124.623 143.355 122.075 134.859 119.523 127.615C119.099 126.416 120.959 125.91 121.532 126.907Z" fill="#EFE5DD"/>
<path d="M118.713 143.878C121.35 144.967 123.677 147.683 123.484 150.648C123.409 151.78 121.967 151.97 121.424 151.073C120.839 150.111 120.357 149.094 119.765 148.139C119.2 147.225 118.294 146.405 117.511 145.68C116.684 144.919 117.7 143.46 118.713 143.878Z" fill="#EFE5DD"/>
<path d="M72.7286 169.6C74.2349 171.652 74.9403 174.325 76.0469 176.618C77.2439 179.096 79.8438 181.736 80.1634 184.456C80.2873 185.512 79.3148 186.138 78.3861 185.656C76.0454 184.446 74.8834 181.083 73.8252 178.809C72.623 176.229 71.1133 172.954 71.3484 170.077C71.3997 169.444 72.2995 169.016 72.7286 169.6Z" fill="#EFE5DD"/>
<path d="M62.2985 173.686C66.2708 177.037 70.1241 181.248 72.2751 186.045C72.7305 187.058 71.4969 187.833 70.7184 187.099C67.0391 183.634 63.8589 179.394 60.8089 175.389C60.078 174.425 61.2498 172.8 62.2985 173.686Z" fill="#EFE5DD"/>
<path d="M49.942 162.094C51.5081 165.03 52.7493 168.125 54.3244 171.061C56.0901 174.352 58.2262 177.438 60.0712 180.685C60.7806 181.932 59.0177 182.967 58.0823 182.032C53.1163 177.063 49.0812 169.787 47.6408 162.902C47.3535 161.526 49.2875 160.87 49.942 162.094Z" fill="#EFE5DD"/>
<path d="M23.6129 159.539C25.322 161.478 26.9773 163.373 28.3793 165.549C29.0493 166.59 27.4907 167.413 26.7076 166.681C24.8806 164.98 23.3728 163.067 21.8243 161.118C20.8773 159.924 22.5897 158.376 23.6129 159.539Z" fill="#EFE5DD"/>
<path d="M57.4809 255.575C59.1539 256.685 60.264 258.505 61.2688 260.201C62.3967 262.101 62.6525 263.777 62.7558 265.932C62.8118 267.107 61.1208 267.277 60.6298 266.37C59.7919 264.821 58.928 263.368 58.1768 261.763C57.4373 260.188 56.3046 258.821 55.5994 257.238C55.0831 256.076 56.3563 254.828 57.4809 255.575Z" fill="#EFE5DD"/>
<path d="M48.7641 257.347C49.4085 258.287 50.053 259.228 50.6974 260.169C51.3481 261.12 51.7125 262.185 52.1467 263.25C52.6436 264.474 51.1757 265.549 50.2165 264.558C49.4271 263.743 48.5783 262.981 47.9782 262.014C47.3761 261.044 46.7761 260.074 46.1739 259.104C45.2304 257.589 47.7527 255.872 48.7641 257.347Z" fill="#EFE5DD"/>
<path d="M40.7249 19.7156C45.2988 22.8017 49.26 27.0162 51.8885 31.8918C52.5802 33.1723 50.7684 34.348 49.8127 33.2987C46.2509 29.3752 42.74 25.43 39.0976 21.5735C38.1188 20.5341 39.5578 18.9253 40.7249 19.7156Z" fill="#EFE5DD"/>
<path d="M32.9084 19.4637C35.935 20.6951 37.2747 23.2355 38.3378 26.1431C38.7601 27.2953 37.2678 28.0995 36.614 27.0144C36.0258 26.0364 35.4129 25.0951 34.7072 24.1999C33.9387 23.2224 33.3164 22.2514 32.1494 21.6855C30.8247 21.0429 31.4722 18.8795 32.9084 19.4637Z" fill="#EFE5DD"/>
<path d="M128.408 183.835C131.983 186.604 135.142 189.603 138.106 193.021C140.536 195.825 144.034 199.149 145.022 202.789C145.079 202.999 144.834 203.114 144.672 203.026C141.383 201.218 138.878 197.33 136.253 194.659C133.188 191.542 130.183 188.404 127.242 185.171C126.568 184.432 127.592 183.203 128.408 183.835Z" fill="white"/>
<path d="M122.188 183.26C125.46 186.414 128.574 189.796 130.385 193.997C130.781 194.914 129.581 195.841 128.887 195.012C126.039 191.62 123.615 187.929 120.585 184.677C119.634 183.655 121.206 182.312 122.188 183.26Z" fill="white"/>
<path d="M34.0237 193.208C36.1418 196.333 38.112 199.556 40.1198 202.753C42.105 205.916 44.4263 209.033 45.6956 212.562C46.2309 214.048 44.5076 215.476 43.3051 214.183C40.9618 211.661 39.3758 208.532 37.639 205.586C35.489 201.94 33.2855 198.322 31.2661 194.601C30.2899 192.803 32.9429 191.614 34.0237 193.208Z" fill="white"/>
<path d="M29.7676 205.953C32.836 210.706 36.8581 215.56 38.6834 220.944C38.9879 221.842 37.6999 222.322 37.1365 221.72C33.2545 217.576 30.898 211.693 28.1693 206.759C27.5999 205.731 29.1551 205.005 29.7676 205.953Z" fill="white"/>
<path d="M53.7672 209.524C55.531 212.884 57.7534 216.11 60.245 218.978C60.9449 219.783 59.7939 220.722 59.0367 220.046C55.9476 217.298 53.6472 214.208 51.8575 210.489C51.2582 209.246 53.1282 208.303 53.7672 209.524Z" fill="white"/>
<path d="M110.633 227.842C111.79 228.613 112.474 229.95 113.249 231.076C114.145 232.38 114.892 233.677 115.416 235.167C115.789 236.229 114.228 236.829 113.564 236.098C112.573 235.006 111.862 233.779 111.167 232.484C110.524 231.288 109.655 229.956 109.525 228.586C109.473 227.992 110.061 227.46 110.633 227.842Z" fill="white"/>
<path d="M104.247 229.103C105.051 230.437 105.967 231.648 106.205 233.209C106.315 233.936 105.454 234.397 104.932 233.849C103.838 232.706 103.438 231.252 102.869 229.8C102.508 228.878 103.729 228.244 104.247 229.103Z" fill="white"/>
</svg>
