<svg xmlns="http://www.w3.org/2000/svg" width="33" height="33" viewBox="0 0 33 33" fill="none">
  <g clip-path="url(#clip0_1_756)">
    <path d="M17.6035 15.9366L25.0297 26.5587H21.982L15.922 17.891V17.8905L15.0323 16.6181L7.95334 6.49219H11.0011L16.7138 14.6642L17.6035 15.9366Z" fill="#3887BF"/>
    <path d="M29.4343 0H3.56572C1.59648 0 0 1.59648 0 3.56572V29.4343C0 31.4035 1.59648 33 3.56572 33H29.4343C31.4035 33 33 31.4035 33 29.4343V3.56572C33 1.59648 31.4035 0 29.4343 0ZM21.0485 27.9846L14.9162 19.0599L7.23848 27.9846H5.25418L14.0351 17.778L5.25418 4.99841H11.9515L17.7584 13.4496L25.0286 4.99841H27.0129L18.6398 14.7317H18.6392L27.7458 27.9846H21.0485Z" fill="#3887BF"/>
  </g>
  <defs>
    <clipPath id="clip0_1_756">
      <rect width="33" height="33" fill="white"/>
    </clipPath>
  </defs>
</svg>